<?xml version="1.0" encoding="utf-8"?>
<!-- Generator: Adobe Illustrator 22.0.0, SVG Export Plug-In . SVG Version: 6.00 Build 0)  -->
<svg version="1.1" id="圖層_1" xmlns="http://www.w3.org/2000/svg" xmlns:xlink="http://www.w3.org/1999/xlink" x="0px" y="0px"
	 viewBox="0 0 133.5 134.7" style="enable-background:new 0 0 133.5 134.7;" xml:space="preserve">
<style type="text/css">
	.st0{fill:#231815;}
	.st1{fill:#FFFFFF;}
</style>
<path class="st0" d="M85.1,122.8c-0.2-3.8,2.6-9.8,2.3-9.8c-0.3,0-8.1-2.2-10.6-2.9c0,0-4,11.4-4.4,13.7c-0.5,2.3-3.8,6.4-3.8,6.4
	s-3.4-5.8-3.8-7.2c-0.5-1.4-4.9-13.2-4.9-13.2l-11.5,4.3c0,0,2.6,3.8,3.5,6.5c0.8,2.6-1.3,10-1.3,10s4.7,2.6,17.8,2
	c13.1-0.6,17.9-3.1,17.9-3.1S85.3,126.7,85.1,122.8z"/>
<path class="st0" d="M100.8,30.3c-10-13.1-18.6-10.8-18.6-10.8s-14.7-8.7-33.6-0.5c-13.1,5.7-21,20.3-22.6,31.1
	C23.3,68.9,28,88.4,28,88.4s6.4,10.3,15.8,9c1,1.5,2.5,3.2,5.6,6c3.3,2.9,14.5,7.1,18.9,7.1c5.1,0,12.2-3,17-6.8
	c3.5-2.6,5.9-4.5,7.9-7.5c2.2-0.2,9.8-1.2,14.6-7.8C111.4,83.7,111,43.7,100.8,30.3z M84.9,103.2c-4.8,3.6-11.8,6.7-16.8,6.7
	c-4.1,0-14.7-4.1-17.8-6.8c-5.7-5.1-6.3-6.7-8.1-10c-0.2-0.4-0.5-0.9-0.7-1.3c-2.2-4.1-3.6-13.4-4.4-22.2c0-2,0.2-4,0.4-6
	c0,0,1.8-3.8,7.2-4.7c3.9-0.6,11.8-3.1,16.4-4.9c8.3-3.1,10.3-7.7,13.2-11.3c2.3-2.9,6.4-4.9,6.4-4.9c0.6-1.1,8.4,1.6,6.2,10.7
	c-1.5,6.3,8.8,9.7,8.8,9.7s2,14.9,1.7,21.5c-0.1,1.3-0.1,2.2-0.1,3.1c-0.7,4.9-2,9.4-4.1,12.7C91.1,98.4,88.5,100.5,84.9,103.2z"/>
<g>
	<path class="st0" d="M61.6,75.8c-0.3,1.1-4.2,4.2-3.6,8.8c0,1.1,1.6,2.6,2.5,2.7c0.9,0.1,1.1,0.2,1.7,0.5c0.7,0.3,1.7,2.9,5.4,3
		c3.5,0.1,3.9-1.9,5.4-2.9c0.1-0.1,0.3-0.1,0.5-0.1c3.5-0.4,4.2-2.7,4.3-3.2c0.4-4.1-1.4-4.1-2.4-6c-0.7-1.3-1.3-2.5-1.4-3.3
		c-0.1-1.5-0.5-6.8-0.5-6.9l0.6,0.8c0,0.1,0.5,4.5,0.6,6c0,0.7,0.7,1.8,1.3,3c1.1,2,2.6,2.9,2.8,7c0.1,2-1.6,3.6-5.8,3.9
		c0,0-2.2,2.8-5.4,2.7c-3.2-0.2-4.6-2.5-5-2.7c-0.3-0.2-1.4-0.8-1.7-0.8c-2-0.5-3.9-0.5-4.2-4.2c-0.4-3.7,3.8-7.4,4.2-8.6
		c0.4-1.2,0.5-7.3,0.5-7.3l0.6,0.5L61.6,75.8"/>
</g>
<path class="st0" d="M77.2,64.7c0,0,2.8-3.3,7.1-3.6c4.3-0.2,6.3,2.5,7.1,2.7c0.9,0.2,2.1-0.4,2.1-0.4s-1.3,2.2-2.7,1.9
	s-4.6-2.1-6.3-2.1C80.7,63.3,77.2,64.7,77.2,64.7z"/>
<path class="st0" d="M58.7,65.2c0,0-2.8-3.3-7.1-3.6s-6.3,2.5-7.1,2.7c-0.9,0.2-2.1-0.4-2.1-0.4s1.3,2.2,2.7,1.9s4.6-2.1,6.3-2.1
	C55.2,63.7,58.7,65.2,58.7,65.2z"/>
<path class="st0" d="M68.1,105c0,0-9-0.7-12.5-7.8l0,0c0-0.1-0.4-1.3,0.2-2.1c0.3-0.4,0.9-0.6,1.6-0.6c1.1,0.1,2.5,0.6,4.1,1.2
	c1.9,0.7,4.1,1.5,5.9,1.7c1.9,0.1,5.2-1,7.9-2c2.4-0.9,3.7-1.3,4.3-1.1c0.4,0.1,0.7,0.4,0.8,0.8c0.3,0.9-1,3.5-1.5,4.1
	C77.2,101.2,73.5,105,68.1,105z M56.3,97c1.5,3.1,7.5,6.6,11.5,6.6c0,0,0.1,0,0.1,0c5.1,0,9.2-3.5,11-6c0.5-0.7,1-1.7,0.9-2.2
	c0-0.2-0.1-0.3-0.3-0.3c-0.4-0.1-2.2,0.5-3.8,1.1c-2.7,1-6,2.7-8.1,2.6c-1.9-0.2-4.3-1.5-6.3-2.2c-1.5-0.6-3-1.1-3.9-1.2
	c-0.5,0-0.8,0.1-1,0.3C56.1,96,56.2,96.7,56.3,97z"/>
<path class="st0" d="M96.4,57.1c-2.4-1.6-13.8-0.7-19.7-0.2c-5.8,0.5-6,5-6,5s-0.6,3.8,1.3,7c1.1,1.9,5.4,4.5,13.3,4.4
	c5.9,0,9.2-1.3,11.4-3.1C97.7,69.3,99.9,59.5,96.4,57.1z M93.7,69.8c-1,0.5-3.4,1.4-8.4,1.4l-0.2,0c-7,0-11.1-2.3-11.5-3.2
	c-1.2-1.1-1.2-5.6-1-6.3c0.2-0.6,0.2-2.2,3.6-3.1c3-0.8,6.5-0.7,9.6-0.7c5.8,0,8.5,0.7,8.8,0.8C97.6,59.5,96.8,68.5,93.7,69.8z"/>
<path class="st0" d="M39,70.4c1,0.9,4.5,3.2,10.4,3.2c7.8,0.1,13.8-3.2,14.4-5.3c0.9-3,0.7-6.7,0.7-6.7s-0.1-4.6-6-5
	c-5.8-0.5-18.2-0.7-20.6,1C34.3,60,36.5,68.1,39,70.4z M40.8,58.8c0.3-0.2,2.8-1.1,8.6-1.1c3.1,0,6.6-0.1,9.5,0.7
	c3.3,0.9,3.4,2.5,3.6,3.1c0.2,0.7,0.3,5.2-1,6.3c-0.4,0.9-1.9,3.2-7.8,3.6l-5.4,0.2c-5.1,0-6.7-1.9-7.8-2.4
	C37,64.9,37.8,59.5,40.8,58.8z"/>
<g>
	<path class="st1" d="M61.8,109c0,0-4.9,1-3.4,4.4c1.6,3.5,3.2,5.8,3.2,5.8l7-4.9c0,0-3.7-0.4-5-2.4C62.3,109.9,61.8,109,61.8,109z"
		/>
	<path class="st0" d="M61.6,119.7l-0.2-0.3c-0.1-0.1-1.7-2.4-3.3-5.8c-0.4-1-0.5-1.9,0-2.6c0.9-1.7,3.5-2.3,3.7-2.3l0.3,0l0.1,0.2
		c0,0,0.5,0.9,1.8,2.9c1.2,1.9,4.7,2.2,4.8,2.2l1,0.1L61.6,119.7z M61.6,109.5c-0.6,0.2-2.3,0.7-2.9,1.9c-0.3,0.6-0.3,1.2,0.1,2
		c1.2,2.7,2.5,4.7,3,5.4l5.9-4.2c-1.2-0.2-3.4-0.9-4.4-2.4C62.4,110.7,61.9,109.8,61.6,109.5z"/>
</g>
<g>
	<path class="st1" d="M74.7,109.3c0,0,3.5,0.5,3.6,2.8c0.1,2.3-3.1,8.6-3.1,8.6l-6.2-6.5c0,0,2.6,0.1,3.8-0.8
		C73.9,112.4,74.7,109.3,74.7,109.3z"/>
	<path class="st0" d="M75.2,121.3l-7.2-7.5l0.9,0c0,0,2.4-0.1,3.6-0.8c1.2-0.6,2-4.2,2-4.2s3.9,0.7,4.1,3.2c0.1,2.3-3,8.6-3.2,8.8
		L75.2,121.3z M69.7,114.6l5.3,5.5c0.7-1.5,3-6.2,2.9-8c-0.1-1.6-2.2-2.4-3.1-2.6c-0.1,1-0.7,3.4-1.8,4.2
		C72.1,114.3,70.7,114.5,69.7,114.6z"/>
</g>
<g>
	<path class="st0" d="M94,126.8c0-0.2-1.3-2.6-2.2-7.4c-0.8-4.6-4-6.2-4.8-5.8l0.2-0.7c0.2,0.1,4.3,0.8,5.3,6.4
		c0.8,4.8,2.1,7.3,2.2,7.4L94,126.8z"/>
</g>
<g>
	<path class="st0" d="M41.9,127.6h-0.7c0-0.6,0.4-2.1,1.6-7.6c1.2-5.7,7-6.4,7.1-6.4l-1.6,0.8c-0.2,0-3.7,0.5-4.9,5.7
		C42.3,125.6,41.9,127.5,41.9,127.6z"/>
</g>
<path class="st0" d="M69.2,114.7c0,0,0,4.3,0,5.6c0,1.3-0.4,10.4-0.4,10.4h-0.6c0,0,0.4-7.8,0.3-9c-0.1-1.2,0.1-7.4,0.1-7.4
	L69.2,114.7z"/>
<path class="st0" d="M64.3,63.1c0,0,2.3,0.4,3.4,0.4c1.1,0,3.6-0.2,3.6-0.2l-0.1,1.6c0,0-3,0.1-3.7,0.1s-3.8-0.5-3.8-0.5L64.3,63.1z
	"/>
<path class="st0" d="M66.6,133.3c-36.1,0-65.5-29.4-65.5-65.5S30.5,2.3,66.6,2.3s65.5,29.4,65.5,65.5S102.7,133.3,66.6,133.3z
	 M66.6,3.7C31.3,3.7,2.5,32.5,2.5,67.8c0,35.3,28.7,64.1,64.1,64.1c35.3,0,64.1-28.7,64.1-64.1C130.7,32.5,101.9,3.7,66.6,3.7z"/>
</svg>
