<?xml version="1.0" encoding="utf-8"?>
<!-- Generator: Adobe Illustrator 22.0.0, SVG Export Plug-In . SVG Version: 6.00 Build 0)  -->
<svg version="1.1" id="圖層_1" xmlns="http://www.w3.org/2000/svg" xmlns:xlink="http://www.w3.org/1999/xlink" x="0px" y="0px"
	 viewBox="0 0 339.2 294.8" style="enable-background:new 0 0 339.2 294.8;" xml:space="preserve">
<style type="text/css">
	.st0{fill:#EFEDD7;}
</style>
<g>
	<path class="st0" d="M268.6,174.9c-10.6-5.9-32.8-18.1-37.1-17.9c-5.6,0.2-16.1,12.4-23.5,11.9c-5.3-0.3-12.1-6.2-15.3-9.3
		c-0.3-15.2-15.6-22.7-16.7-23.2c5.1-3.2,12.8-8.6,11.5-22.4c-0.7-7.1-5.6-9-5.6-18c-7.9-2.2-10.7,5.1-10.7,5.1
		c0,0,12.2,5.9,12.3,13.4c0.1,3.7,2.6,13.6-11.8,21.1c-2.4-0.2-7.1,0.7-20,11c-10.4,8.3-30.6,8.3-44.4,15.3
		c-7.9,4-19.1,14.8-26.5,15.9c-5.4,0.8-9.7-0.3-12.8-3.1c-5.7-5.1-6.4-14.7-6.5-17.5c9.8-8.2,9-20,9-20s1.7,0.5,4.1-1.1
		c7.1-4.8,11-15.2,7.5-16.8c-3.6-1.7-13.5,4.1-13.5,4.1c-0.7-0.5-1.2-1.4-1.9-2.4c1.7-2.2,4.8-8.3,15-9.9
		c12.9-2.1,19.3,9.3,30.3,2.6c10.1-6.1,5.5-17.4,5.5-17.4c0,0.1,0.2,7.4-6.7,13.5c-9.2,8.1-19.4-6.7-30.4-5.8
		c-8.1,0.7-13.5,5.5-16.8,9.8c0.3-4.4,2.7-11.8,15.1-15.1c7.1-1.9,14.3,5.7,25,0.1c9.9-5.2,5.2-19.1,5.2-19.1s1.1,9.8-6.7,14
		c-7.3,3.9-18.1-5-32.2,1c-11.8,5-12.9,16.6-13.3,21.5c-7.4,0.3-17.9,11.7-33.2,19.3c-12.2,6.1-23.2,6.9-22.8,12
		c0.4,5.1,14,11.1,15.7,11.6c12.2,3.6,21.4,4.4,27.8,4.1c0.5,17.1,4.4,35,14.6,43.8c5.1,4.4,11.1,7.2,17.2,8.9
		c0.8,2.7,1.7,6.4,2,9.8c0.9,8.7,0,17.4,1.7,20.8c1.9,3.8,6.2,4.6,21.9,8.7c0.3,0.6,0.5,1,0.7,1.4c1.9,2.8,9,5.3,18,11.2
		c7.3,4.8,16.3,11.2,16.3,11.2s8.6,6.3,11.3,8.3s4.9,7.3,6.2,7.3c1.3,0-1-9.1-1-9.1l-4.2-3.5l-6.1-3.7l-17.4-12.9l-10-6.6
		c4.2,1.2,8.8,2.5,14,4.1c3.7,1.1,7.7,4,12.1,5.8c4.2,1.7,5,5.9,5.9,4.7c0.8-1.3-1.5-7.9-1.5-7.9c-4-1.2-10.4-5.3-14.8-6.6
		c-7.9-2.3-16.4-4.3-23.8-6.1l-5.4-17.8l-1.7-16.5c0.1,0,0.3,0,0.4,0c41.5-1.3,49.7-19.8,57.9-26.9c2.7-2.4,5-4.4,6.4-5
		c1.5-0.7,3.9-0.9,6.4-1c2.8-0.2,5.6-0.8,8.2-2.1l-0.3,0.3c0,0,20.1,8.3,28.3,6.8s26.6-12.7,26.6-12.7l11.6,4.1L271,195
		c0,0,4.4,2,7.7,2.8c2,0.5,4.4,4,4.6,3c0.4-2.6-5.3-8.7-5.3-8.7l-7.1-2.2c0,0-9.5-4.8-19.4-9.8c-8.1-4.1-16.5-8.8-19.8-7.5
		c-6.1,2.4-15.7,10.5-27,10.5c-8.2,0-15.2-6.2-16.6-7.6c0.2-0.3,0.4-0.7,0.6-1c0.5-0.9,1-1.9,1.4-2.8c4.4,2.5,14.6,7.7,21.3,5.4
		c4.5-1.5,22.5-14.2,22.5-14.2l34.1,16.5c0,0,5.6,1.3,10.4,2.8c2.3,0.7,5.4,2.7,5.7,2.4c1.1-1-4.5-6.7-4.5-6.7
		S272.1,176.8,268.6,174.9z M27.9,158.1c-17-2.6-24.3-7.5-23.6-10.5c0.7-3,12.3-4.6,21.7-8.4c9.5-3.8,25-16.3,28.3-17.6
		c11.1-4.5,13.8,5.4,14,5.6c0,0,10.3-6.7,10.9-3.9c-0.4,10.9-10.3,10.7-10.3,10.7l-2.1,4.7c-0.4,6.1-6.2,14.9-15.4,18.3
		C44.4,159.6,40.3,160,27.9,158.1z M100.4,251c-7.3-2-12.5-3.8-13.3-5.7c-1.7-3.9-0.5-19.5,0.3-27.5c1.4,0.2,2.8,0.3,4.1,0.4
		C93.5,226.4,97.5,242.4,100.4,251z M164,183.7c-2,0.9-4.8,2.4-7.5,5.7c-9.5,11.4-20.7,19.3-38.9,21.7c-7.4,1-39.5,5.8-55.9-8.4
		c-9.3-8-12.2-24.2-12.7-40.1c3.9-0.5,6-1.3,6.3-1.5c0.8-0.4,1.6-0.8,2.4-1.2c0.8,4.5,2.9,12.1,7.5,18.1c4,5.2,8.9,7.2,15.6,6.3
		c8.3-1.2,20.2-16.2,27.8-19.8c16.9-8,35.2-7.5,46.7-17c14.1-11.7,18-7.4,21.4-5.8s19,14.1,9.2,30.8c-2.8,4.8-7.7,9.3-14,9.7
		C169,182.5,166.2,182.7,164,183.7z"/>
	<path class="st0" d="M242.5,26.6c1.4,1.5,3.8,5.9,5,5.4c1.2-0.5,0.2-5.9,2.1-6.7s5.9-0.5,6-2s-4.3-3.6-5.1-5.2s1.2-6.1-0.5-7
		c-1.7-0.9-4.5,3.2-6.1,3.9c-1.6,0.6-6-2.6-6.4-1.4s1.8,4.9,1.5,6.7c-0.3,1.8-5.4,3.6-4.9,5.5C234.5,27.7,241.1,25.1,242.5,26.6z"/>
	<path class="st0" d="M106.4,56.3c0.3,1-1.2,3.3-0.5,4.1c0.7,0.8,3.1-2.1,4.2-1.8c1.1,0.3,3.3,1.8,3.8,1.2c0.4-0.6-1.4-2.8-0.8-3.7
		c0.7-0.9,2.7-1.8,2.3-2.5c-0.4-0.8-3-0.6-3.8-1.1c-0.8-0.5-1-3.2-2.1-3.2c-1,0-1.2,2.1-1.8,2.8c-0.6,0.7-3.8,0.2-4,1.4
		C103.7,54.7,106.1,55.3,106.4,56.3z"/>
	<path class="st0" d="M296,4.4c-0.7-0.5-0.9-2.7-1.8-2.7c-0.9,0-1.1,1.8-1.6,2.4c-0.5,0.6-3.3,0.2-3.4,1.2c-0.1,1,1.9,1.6,2.2,2.4
		c0.3,0.8-1,2.8-0.4,3.5c0.6,0.7,2.7-1.8,3.6-1.5c0.9,0.3,2.9,1.5,3.2,1.1c0.4-0.5-1.2-2.4-0.6-3.2c0.6-0.8,2.3-1.5,2-2.2
		C298.9,4.7,296.6,4.8,296,4.4z"/>
	<path class="st0" d="M141.6,94.1c0.2,0.6-0.8,2.1-0.3,2.7c0.5,0.5,2-1.4,2.7-1.2c0.7,0.2,2.2,1.2,2.4,0.8c0.3-0.4-0.9-1.8-0.5-2.4
		c0.4-0.6,1.7-1.1,1.5-1.6c-0.2-0.5-1.9-0.4-2.4-0.7c-0.5-0.4-0.7-2.1-1.3-2c-0.7,0-0.8,1.4-1.2,1.8c-0.4,0.5-2.5,0.1-2.6,0.9
		C139.9,93,141.4,93.4,141.6,94.1z"/>
	<path class="st0" d="M151.4,68c0.3,1,3.6-0.6,4.3,0.1s2.1,2.9,2.7,2.6s-0.1-3,0.9-3.5s3-0.4,3-1.2c0-0.8-2.3-1.7-2.8-2.5
		c-0.5-0.8,0.4-3.2-0.5-3.5c-0.9-0.4-1.9,1.3-2.7,1.7c-0.8,0.4-3.4-1.4-4-0.4c-0.6,1,1.2,2.5,1.1,3.4C153.4,65.6,151.1,67,151.4,68z
		"/>
	<path class="st0" d="M170.6,18.1c0.4,0.7-0.5,2.8,0.1,3.3s2.2-2.1,3.1-1.9c0.9,0.1,2.9,1,3.1,0.5c0.3-0.5-1.5-2.1-1.1-2.9
		c0.4-0.8,1.9-1.7,1.5-2.3c-0.4-0.6-2.4-0.1-3.1-0.4s-1.2-2.4-2-2.2c-0.8,0.2-0.7,1.8-1.1,2.4c-0.4,0.6-3,0.6-2.9,1.6
		C168.2,17.2,170.2,17.4,170.6,18.1z"/>
	<path class="st0" d="M333.1,36.4c0-1.5,1.5-3.9,0.6-4.4c-1-0.6-3.6,1.7-4.9,1.7s-3.5-2.6-4.6-1.8c-1.1,0.8,0.3,3.2,0.2,4.4
		c-0.1,1.2-3.9,3.1-3.2,4.5c0.7,1.4,3.8,0.2,4.8,1c1.1,0.8,1.2,4.4,2.6,4.8s1.7-4.6,3.1-5.1c1.4-0.5,4.9-0.6,4.9-1.5
		C336.7,38.8,333,37.8,333.1,36.4z"/>
	<path class="st0" d="M198.8,59.6c0.7,1.2,4.6-1.9,5.8-1.1s3.8,3.2,4.5,2.6c0.7-0.6-1-4,0.1-5s3.9-1.5,3.6-2.6
		c-0.2-1.1-3.6-1.5-4.5-2.5c-0.8-0.9-0.5-4.3-1.8-4.6c-1.3-0.2-2.2,2.3-3.1,3.1c-0.9,0.7-4.9-0.8-5.4,0.7c-0.5,1.5,2.4,2.9,2.5,4.2
		C200.7,55.8,198.1,58.3,198.8,59.6z"/>
</g>
</svg>
