<?xml version="1.0" encoding="utf-8"?>
<!-- Generator: Adobe Illustrator 22.0.0, SVG Export Plug-In . SVG Version: 6.00 Build 0)  -->
<svg version="1.1" id="圖層_1" xmlns="http://www.w3.org/2000/svg" xmlns:xlink="http://www.w3.org/1999/xlink" x="0px" y="0px"
	 viewBox="0 0 50 47.1" style="enable-background:new 0 0 50 47.1;" xml:space="preserve">
<style type="text/css">
	.st0{fill:#FEDC68;}
</style>
<path class="st0" d="M31,46c-1.9-1.1-3.8-2.2-5.6-3.2c-1.7,1-3.6,2.1-6,3.5c0.5-6.3-3-10-6.2-14c-3.3-4.1-6.7-8.2-9.5-12.6
	c-2.2-3.4-2.4-7.5-2.2-11.8C3.6,8,5.6,8.1,7.6,8.2C7.3,5.7,7.1,3.1,6.8,0.7C14.6-0.7,21.6,4,25.4,12.9c1.3-4,3.3-7.3,6.9-9.5
	c3.4-2.1,7.2-3.2,11.6-2.9c-0.2,2.7-0.5,5.2-0.7,7.8c1.9-0.1,3.9-0.2,6.1-0.4c0.3,6.2-1.2,11.7-5,16.5c-2.9,3.6-6.1,7-9,10.7
	c-2.4,3-4.6,6.2-4,10.5C31.3,45.6,31.1,45.8,31,46z M25.4,33.9C27,25.6,34.2,20.3,37,12.3c-4.9,2.6-8.8,5.9-11.6,10.6
	c-2.9-4.8-6.7-8-11.6-10.3c1.4,2.8,2.9,5.5,4.6,8C21.1,24.9,24.3,28.8,25.4,33.9z M42.4,10.4c-2.3,6.1-5.7,11.2-9.4,16.2
	c-2.2,3-4.2,6.1-6,9.3c-1.8,3.3-0.8,6.1,1.7,7c0.4-1.9,0.5-4,1.3-5.8c0.9-2,2.3-3.8,3.6-5.7c2.6-3.6,5.4-7.1,7.8-10.8
	C43.5,17.7,44.2,14.3,42.4,10.4z M21.4,43.5c3.4-2.4,4-3.9,2.4-7.4c-0.7-1.6-1.6-3.1-2.5-4.5c-4.7-6.8-10.1-13.1-12.9-21.2
	c-1.5,3.1-1.4,5.9,0,8.6c1,2,2.2,3.8,3.4,5.6c2.9,4.2,5.9,8.2,8.8,12.4C21.9,38.9,22.2,41,21.4,43.5z M39.2,2.8
	c-7.4,0.6-13,7.4-12.8,14.8c3.4-2.3,7.2-4.7,10.8-7.2c0.4-0.2,0.8-0.6,0.8-1C38.6,7.2,38.9,5.1,39.2,2.8z M11.8,2.7
	c0,1.3,0,2.4,0,3.5c0.1,2.6,1.2,4.3,3.8,5.4c1.7,0.7,3.2,2,4.8,3.2c1.4,1.1,2.7,2.3,4.2,3.6C22.6,8.2,18.7,3.3,11.8,2.7z"/>
</svg>
