<?xml version="1.0" encoding="utf-8"?>
<!-- Generator: Adobe Illustrator 17.0.0, SVG Export Plug-In . SVG Version: 6.00 Build 0)  -->
<!DOCTYPE svg PUBLIC "-//W3C//DTD SVG 1.1//EN" "http://www.w3.org/Graphics/SVG/1.1/DTD/svg11.dtd">
<svg version="1.1" id="圖層_1" xmlns="http://www.w3.org/2000/svg" xmlns:xlink="http://www.w3.org/1999/xlink" x="0px" y="0px"
	 width="46px" height="40px" viewBox="0 0 46 40" enable-background="new 0 0 46 40" xml:space="preserve">
<path fill="#B28247" d="M13.848,29.376c-1.606,0-3.918-0.15-5.565-1.574c-1.419-1.228-1.914-3.762-1.949-6.131l0.599-0.009
	c0.033,2.191,0.412,4.484,1.697,5.595c2.192,1.897,6.472,1.254,7.457,1.124c2.43-0.317,3.929-1.367,5.19-2.887
	c0.363-0.437,0.738-0.642,0.998-0.761c0.299-0.136,0.665-0.162,1.053-0.19c0.836-0.06,1.49-0.658,1.864-1.296
	c1.31-2.227-0.762-3.882-1.226-4.104c-0.464-0.222-0.978-0.794-2.859,0.769c-1.522,1.265-3.972,1.199-6.221,2.261
	c-1.019,0.481-2.601,2.482-3.713,2.638c-0.897,0.126-1.547-0.15-2.078-0.84c-0.905-1.177-1.069-2.834-1.067-2.912l0.599,0.016
	c-0.001,0.016-0.031,1.648,0.869,2.451c0.42,0.375,0.995,0.514,1.71,0.414c0.979-0.138,2.475-1.579,3.53-2.117
	c1.836-0.937,4.534-0.937,5.916-2.041c2.222-1.776,2.628-1.444,2.89-1.444l0.337,0.075c0.031,0.017,3.56,1.644,1.686,5.096
	c-0.581,1.071-1.441,1.412-2.3,1.473c-0.333,0.024-0.647,0.047-0.848,0.138c-0.181,0.082-0.493,0.354-0.853,0.667
	C20.478,26.736,19.385,29.206,13.848,29.376z"/>
<path fill="#B28247" d="M23.427,18.722l-0.41-0.256c2.26-1.006,1.891-2.446,1.883-2.963c-0.016-1.004-1.64-1.784-1.646-1.791
	c0,0,0.373-0.98,1.421-0.68c0,1.198,0.659,1.448,0.749,2.396C25.648,17.798,23.885,18.321,23.427,18.722z"/>
<path fill="#B28247" d="M2.64,21.417c-0.228-0.068-2.046-0.873-2.096-1.547c-0.05-0.674,1.411-0.787,3.045-1.597
	c2.108-1.045,3.533-2.637,4.517-2.57c1.15,0.078,1.211,0.795,1.472,0.973c0,0,1.323-0.774,1.797-0.549
	c0.474,0.225-0.048,1.606-0.998,2.246c-0.324,0.218-0.549,0.15-0.549,0.15s0.15,2.196-2.046,3.194
	C7.667,21.769,5.984,22.415,2.64,21.417z M4.137,21.317c1.647,0.25,2.196,0.2,3.144-0.15c1.218-0.449,1.993-1.626,2.047-2.441
	l0.274-0.629c0,0,1.323,0.025,1.373-1.423C10.9,16.301,9.528,17.2,9.528,17.2c-0.037-0.025-0.386-1.343-1.872-0.749
	c-0.437,0.175-2.511,1.846-3.771,2.35C2.637,19.3,1.093,19.521,0.993,19.92C0.893,20.319,1.873,20.974,4.137,21.317z"/>
<path fill="#B28247" d="M9.144,16.427L8.38,16.263c0.065-0.083,0.84-2.028,2.781-2.192c1.465-0.124,2.82,1.847,4.051,0.773
	c0.925-0.808,0.896-1.779,0.897-1.794c0,0,0.612,1.502-0.739,2.322c-1.477,0.897-2.319-0.62-4.045-0.343
	C9.513,15.319,9.377,16.662,9.144,16.427z"/>
<path fill="#B28247" d="M8.929,15.827l-0.948,0.15c0.075-0.25-0.1-2.339,1.796-3.138c1.885-0.794,3.32,0.393,4.293-0.131
	c1.042-0.561,0.898-1.872,0.898-1.872s0.616,1.853-0.699,2.545c-1.422,0.749-2.383-0.264-3.332-0.015
	C8.637,13.972,8.929,15.627,8.929,15.827z"/>
<path fill="#B28247" d="M20.087,36.683c-0.112,0.169-0.225-0.393-0.785-0.622c-0.58-0.246-1.123-0.627-1.611-0.775
	c-5.249-1.59-6.257-1.496-6.616-2.215c-0.228-0.457-0.106-1.61-0.225-2.77c-0.089-0.869-0.449-1.872-0.449-1.872l1.722,0.225
	c0,0-0.399,3.594-0.1,4.292c0.243,0.568,3.324,1.073,5.893,1.815c0.591,0.171,1.435,0.71,1.972,0.873
	C19.887,35.635,20.2,36.515,20.087,36.683z"/>
<path fill="#B28247" d="M20.987,39.494c-0.169,0-0.468-0.701-0.824-0.969c-0.356-0.268-1.501-1.112-1.501-1.112
	s-1.201-0.856-2.171-1.497c-1.194-0.79-2.148-1.126-2.396-1.497c-0.449-0.674-1.647-5.765-1.647-5.765l1.273,0.075l0.299,2.845
	l0.749,2.471l2.396,1.572l2.321,1.722l0.815,0.488l0.558,0.461C20.858,38.287,21.155,39.494,20.987,39.494z"/>
<path fill="#B28247" d="M38.276,24.861c-0.047,0.042-0.461-0.222-0.764-0.319c-0.637-0.204-1.381-0.378-1.381-0.378l-4.543-2.198
	c0,0-2.396,1.697-2.995,1.897c-1.171,0.39-3.138-0.902-3.138-0.902l0.393-1.718c0,0,1.331,1.456,2.312,1.514
	c0.982,0.058,2.382-1.561,3.128-1.589c0.563-0.021,3.525,1.594,4.942,2.388c0.46,0.258,1.446,0.407,1.446,0.407
	S38.422,24.73,38.276,24.861z"/>
<path fill="#B28247" d="M38.187,27.015c-0.022,0.128-0.349-0.341-0.613-0.406c-0.447-0.111-1.03-0.375-1.03-0.375l-3.358-1.722
	l-1.547-0.549c0,0-2.446,1.497-3.544,1.697c-1.098,0.2-3.773-0.909-3.773-0.909l1.128-1.137c0,0,1.025,1.048,2.246,1.048
	c1.497,0,2.787-1.075,3.594-1.398c0.446-0.179,1.572,0.454,2.645,0.998c1.327,0.672,2.591,1.309,2.591,1.309l0.953,0.289
	C37.478,25.859,38.245,26.67,38.187,27.015z"/>
<path fill="#B28247" d="M22.223,8.298c-0.311,0.14-0.924-0.996-1.297-1.388s-2.069,0.284-2.184-0.22
	c-0.114-0.504,1.187-0.951,1.274-1.426c0.087-0.475-0.496-1.459-0.381-1.747c0.115-0.288,1.262,0.54,1.666,0.373
	c0.404-0.167,1.136-1.226,1.569-1.006c0.433,0.22-0.069,1.393,0.135,1.804c0.204,0.411,1.357,0.937,1.328,1.343
	c-0.03,0.405-1.071,0.306-1.559,0.524C22.285,6.772,22.534,8.158,22.223,8.298z"/>
<path fill="#B28247" d="M35.248,2.796c-0.095,0.126-0.597-0.197-0.835-0.272c-0.239-0.075-0.775,0.577-0.934,0.399
	c-0.159-0.179,0.181-0.703,0.11-0.914c-0.071-0.212-0.6-0.357-0.57-0.617c0.03-0.261,0.752-0.151,0.878-0.309
	c0.126-0.158,0.178-0.616,0.403-0.624c0.225-0.008,0.283,0.579,0.457,0.7c0.174,0.121,0.759,0.076,0.838,0.247
	s-0.365,0.363-0.514,0.561C34.933,2.164,35.343,2.67,35.248,2.796z"/>
<path fill="#B28247" d="M45.307,10.324c-0.006,0.241-0.915,0.283-1.278,0.401c-0.363,0.118-0.451,1.402-0.806,1.321
	c-0.355-0.081-0.397-1.033-0.673-1.233s-1.06,0.088-1.254-0.262c-0.193-0.35,0.8-0.853,0.818-1.161
	c0.017-0.308-0.324-0.923-0.052-1.131c0.272-0.208,0.865,0.469,1.188,0.465c0.323-0.004,1.01-0.577,1.259-0.434
	c0.249,0.142-0.133,0.774-0.143,1.151C44.356,9.819,45.313,10.083,45.307,10.324z"/>
<path fill="#B28247" d="M25.23,23.201c-0.375,0.637-1.038,1.441-1.874,1.501c-0.388,0.028-0.858-0.031-1.157,0.105
	c-0.261,0.119-0.523,0.203-0.885,0.64c-1.261,1.52-2.888,2.723-5.318,3.04c-0.985,0.13-5.344,0.74-7.535-1.157
	c-1.267-1.095-1.71-3.375-1.752-5.537l1.387-0.535c0.072,0.51,0.321,1.733,1.039,2.667c0.53,0.69,1.181,0.966,2.078,0.839
	c1.112-0.156,2.694-2.157,3.713-2.638c2.248-1.061,4.698-0.995,6.221-2.261c1.881-1.563,2.394-0.991,2.859-0.769
	C24.468,19.319,26.54,20.973,25.23,23.201z"/>
<path fill="#B28247" d="M4.137,21.317c1.647,0.25,2.196,0.2,3.144-0.15c1.218-0.449,1.993-1.626,2.047-2.441l0.274-0.629
	c0,0,1.323,0.025,1.373-1.423C10.9,16.301,9.528,17.2,9.528,17.2c-0.037-0.025-0.386-1.343-1.872-0.749
	c-0.437,0.175-2.511,1.846-3.771,2.35C2.637,19.3,1.093,19.521,0.993,19.92C0.893,20.319,1.873,20.974,4.137,21.317z"/>
</svg>
