<svg id="圖層_1" data-name="圖層 1" xmlns="http://www.w3.org/2000/svg" viewBox="0 0 270.95 183.5"><defs><style>.cls-1{fill:#d2e0d4;}.cls-2{fill:#383a3d;}.cls-3{fill:#807f80;}</style></defs><title>typesetting-3</title><rect class="cls-1" width="270.95" height="183.5"/><rect class="cls-2" x="102.38" y="28.5" width="65.5" height="112.5"/><rect class="cls-3" x="21.09" y="28.04" width="65.2" height="4.25"/><rect class="cls-3" x="21.09" y="38.51" width="65.2" height="4.25"/><rect class="cls-3" x="21.09" y="48.99" width="65.2" height="4.25"/><rect class="cls-3" x="21.09" y="59.46" width="65.2" height="4.25"/><rect class="cls-3" x="21.09" y="69.93" width="51.02" height="4.25"/><rect class="cls-3" x="21.09" y="80.4" width="65.2" height="4.25"/><rect class="cls-3" x="21.09" y="90.87" width="65.2" height="4.25"/><rect class="cls-3" x="21.09" y="101.35" width="65.2" height="4.25"/><rect class="cls-3" x="21.09" y="111.82" width="65.2" height="4.25"/><rect class="cls-3" x="21.09" y="122.29" width="65.2" height="4.25"/><rect class="cls-3" x="21.09" y="132.76" width="28.35" height="4.25"/><rect class="cls-3" x="110.59" y="42.62" width="48.19" height="4.25"/><rect class="cls-3" x="110.59" y="55.38" width="48.19" height="4.25"/><rect class="cls-3" x="110.59" y="68.14" width="28.35" height="4.25"/><rect class="cls-3" x="110.59" y="80.89" width="48.19" height="4.25"/><rect class="cls-3" x="110.59" y="93.65" width="48.19" height="4.25"/><rect class="cls-3" x="110.59" y="106.4" width="48.19" height="4.25"/><rect class="cls-3" x="110.59" y="119.16" width="14.17" height="4.25"/><rect class="cls-3" x="185.42" y="28.04" width="65.2" height="4.25"/><rect class="cls-3" x="185.42" y="38.51" width="65.2" height="4.25"/><rect class="cls-3" x="185.42" y="48.99" width="39.69" height="4.25"/><rect class="cls-3" x="185.42" y="59.46" width="65.2" height="4.25"/><rect class="cls-3" x="185.42" y="69.93" width="65.2" height="4.25"/><rect class="cls-3" x="185.42" y="80.4" width="65.2" height="4.25"/><rect class="cls-3" x="185.42" y="90.87" width="34.02" height="4.25"/><rect class="cls-3" x="185.42" y="101.35" width="65.2" height="4.25"/><rect class="cls-3" x="185.42" y="111.82" width="65.2" height="4.25"/><rect class="cls-3" x="185.42" y="122.29" width="65.2" height="4.25"/><rect class="cls-3" x="185.42" y="132.76" width="65.2" height="4.25"/><rect class="cls-3" x="185.42" y="143.24" width="53.86" height="4.25"/></svg>