<svg id="圖層_1" data-name="圖層 1" xmlns="http://www.w3.org/2000/svg" viewBox="0 0 270.95 183.5"><defs><style>.cls-1{fill:#d2e0d4;}.cls-2{fill:#231815;}.cls-3{fill:#807f80;}.cls-4{fill:#fff;}.cls-4,.cls-5{stroke:#231815;stroke-miterlimit:10;}.cls-5{fill:#a24b23;}</style></defs><title>typesetting-6</title><rect class="cls-1" width="270.95" height="183.5"/><path class="cls-2" d="M314.38,239.87a2.3,2.3,0,0,1,0,.39.76.76,0,0,1-.06.25.3.3,0,0,1-.1.14.21.21,0,0,1-.13,0h-5.23a.69.69,0,0,1-.45-.16.66.66,0,0,1-.18-.51V231a.59.59,0,0,1,.63-.67H314a.33.33,0,0,1,.13,0,.56.56,0,0,1,.09.14.91.91,0,0,1,.06.26,2.36,2.36,0,0,1,0,.4,2.12,2.12,0,0,1,0,.38.7.7,0,0,1-.06.25.49.49,0,0,1-.09.15.22.22,0,0,1-.13,0h-3.72v2.54h3.15a.24.24,0,0,1,.13.05.34.34,0,0,1,.1.13.83.83,0,0,1,.06.25c0,.11,0,.24,0,.39a3.79,3.79,0,0,1,0,.38.76.76,0,0,1-.06.25.34.34,0,0,1-.1.13.22.22,0,0,1-.13,0h-3.15V239h3.75a.2.2,0,0,1,.13,0,.3.3,0,0,1,.1.14.83.83,0,0,1,.06.26A2.18,2.18,0,0,1,314.38,239.87Z" transform="translate(-286.12 -206)"/><path class="cls-2" d="M322.37,240.28a.56.56,0,0,1,.06.22.22.22,0,0,1-.12.15,1.18,1.18,0,0,1-.35.07,5.36,5.36,0,0,1-.62,0h-.58a1.46,1.46,0,0,1-.35,0,.38.38,0,0,1-.18-.09.25.25,0,0,1-.09-.13l-1.33-2.55-1.33,2.55a.25.25,0,0,1-.09.13.34.34,0,0,1-.17.09,1.28,1.28,0,0,1-.33,0h-.54a4.54,4.54,0,0,1-.57,0,.82.82,0,0,1-.3-.07.17.17,0,0,1-.1-.15.43.43,0,0,1,.06-.22l2-3.54-1.83-3.31a.59.59,0,0,1-.08-.25.16.16,0,0,1,.1-.15A.8.8,0,0,1,316,233a5,5,0,0,1,.62,0h.57a2.11,2.11,0,0,1,.33,0,.38.38,0,0,1,.18.08.3.3,0,0,1,.09.13l1.28,2.4,1.28-2.4a.26.26,0,0,1,.07-.11.27.27,0,0,1,.15-.08,1.55,1.55,0,0,1,.29-.05l.49,0,.57,0a.66.66,0,0,1,.3.07.15.15,0,0,1,.09.16.61.61,0,0,1-.09.26l-1.79,3.26Z" transform="translate(-286.12 -206)"/><path class="cls-2" d="M329.56,240.45a.21.21,0,0,1-.08.17.48.48,0,0,1-.25.1l-.52,0-.52,0a.45.45,0,0,1-.24-.1.24.24,0,0,1-.06-.17v-.58a3.45,3.45,0,0,1-1,.75,3.05,3.05,0,0,1-1.26.26,3.51,3.51,0,0,1-1.05-.15,2.28,2.28,0,0,1-.83-.44,2,2,0,0,1-.55-.73,2.64,2.64,0,0,1-.19-1,2.22,2.22,0,0,1,.25-1.09,1.92,1.92,0,0,1,.73-.77,3.51,3.51,0,0,1,1.21-.44,8.31,8.31,0,0,1,1.68-.15h.7v-.43a2.15,2.15,0,0,0-.07-.6,1,1,0,0,0-.22-.42,1.09,1.09,0,0,0-.42-.25,2.35,2.35,0,0,0-.65-.08,3.46,3.46,0,0,0-.9.11,6.42,6.42,0,0,0-.71.25l-.51.25a.74.74,0,0,1-.33.12.25.25,0,0,1-.16-.06.5.5,0,0,1-.11-.16,1.38,1.38,0,0,1-.07-.26,1.78,1.78,0,0,1,0-.34,1.41,1.41,0,0,1,0-.39.5.5,0,0,1,.15-.26,1.37,1.37,0,0,1,.39-.26,5.35,5.35,0,0,1,.66-.26,6.31,6.31,0,0,1,.83-.2,5.52,5.52,0,0,1,.92-.08,5.47,5.47,0,0,1,1.44.17,2.45,2.45,0,0,1,1,.51,2,2,0,0,1,.56.88,4,4,0,0,1,.18,1.28Zm-2-3.08h-.77a4.89,4.89,0,0,0-.84.07,1.72,1.72,0,0,0-.56.22,1,1,0,0,0-.32.35,1,1,0,0,0-.1.47.91.91,0,0,0,.29.71,1.14,1.14,0,0,0,.79.26,1.42,1.42,0,0,0,.78-.22,3.15,3.15,0,0,0,.73-.63Z" transform="translate(-286.12 -206)"/><path class="cls-2" d="M343,240.42a.22.22,0,0,1-.05.14.32.32,0,0,1-.16.1,1.13,1.13,0,0,1-.31.06,3.48,3.48,0,0,1-.49,0,3.63,3.63,0,0,1-.5,0,1.13,1.13,0,0,1-.31-.06.32.32,0,0,1-.16-.1.21.21,0,0,1,0-.14v-4.26a2.73,2.73,0,0,0-.07-.66,1.66,1.66,0,0,0-.21-.51,1,1,0,0,0-.35-.33,1.16,1.16,0,0,0-1.25.17,5.24,5.24,0,0,0-.8.82v4.77a.22.22,0,0,1-.05.14.32.32,0,0,1-.16.1,1.22,1.22,0,0,1-.31.06,6,6,0,0,1-1,0,1.13,1.13,0,0,1-.31-.06.28.28,0,0,1-.16-.1.22.22,0,0,1-.05-.14v-4.26a2.73,2.73,0,0,0-.07-.66,1.94,1.94,0,0,0-.2-.51,1,1,0,0,0-.36-.33,1.13,1.13,0,0,0-.51-.11,1.22,1.22,0,0,0-.74.28,4.82,4.82,0,0,0-.79.82v4.77a.22.22,0,0,1-.05.14.31.31,0,0,1-.17.1,1.06,1.06,0,0,1-.31.06,3.4,3.4,0,0,1-.49,0,3.48,3.48,0,0,1-.49,0,1.13,1.13,0,0,1-.31-.06.32.32,0,0,1-.16-.1.22.22,0,0,1-.05-.14v-7.18a.23.23,0,0,1,0-.14.39.39,0,0,1,.14-.1l.27-.06.42,0,.43,0,.26.06a.34.34,0,0,1,.13.1.23.23,0,0,1,0,.14v.83a4.56,4.56,0,0,1,1.19-1,2.47,2.47,0,0,1,1.23-.33,3.24,3.24,0,0,1,.8.1,2.38,2.38,0,0,1,.63.26,2,2,0,0,1,.48.42,2.47,2.47,0,0,1,.34.54,5.81,5.81,0,0,1,.63-.6,4,4,0,0,1,.61-.4,2.51,2.51,0,0,1,.6-.24,2.64,2.64,0,0,1,.62-.08,2.74,2.74,0,0,1,1.21.25,2.19,2.19,0,0,1,.79.65,2.76,2.76,0,0,1,.43,1,5,5,0,0,1,.13,1.18Z" transform="translate(-286.12 -206)"/><path class="cls-2" d="M352.21,236.73a6.94,6.94,0,0,1-.2,1.72,4,4,0,0,1-.6,1.31,2.61,2.61,0,0,1-1,.83,3.08,3.08,0,0,1-1.35.29,2.49,2.49,0,0,1-.57-.06,2.21,2.21,0,0,1-.51-.18,4.42,4.42,0,0,1-.49-.31c-.16-.13-.32-.27-.5-.44v3.38a.28.28,0,0,1,0,.15.45.45,0,0,1-.17.1,1.1,1.1,0,0,1-.31.07,4,4,0,0,1-1,0,1.1,1.1,0,0,1-.31-.07.45.45,0,0,1-.17-.1.28.28,0,0,1,0-.15v-10a.23.23,0,0,1,0-.14.27.27,0,0,1,.14-.1l.26-.06.42,0,.4,0,.27.06a.32.32,0,0,1,.14.1.23.23,0,0,1,0,.14v.85a6.42,6.42,0,0,1,.62-.57,3.83,3.83,0,0,1,.61-.41,3,3,0,0,1,2.71,0,2.42,2.42,0,0,1,.9.84,4,4,0,0,1,.51,1.26A6.84,6.84,0,0,1,352.21,236.73Zm-2.11.14A6.29,6.29,0,0,0,350,236a2.75,2.75,0,0,0-.24-.75,1.42,1.42,0,0,0-.43-.53,1.13,1.13,0,0,0-.67-.19,1.34,1.34,0,0,0-.4.06,1.45,1.45,0,0,0-.4.19,2.65,2.65,0,0,0-.43.36,5.74,5.74,0,0,0-.46.54V238a4.6,4.6,0,0,0,.82.83,1.27,1.27,0,0,0,.8.3,1.13,1.13,0,0,0,.67-.2,1.58,1.58,0,0,0,.46-.53,2.69,2.69,0,0,0,.26-.74A3.74,3.74,0,0,0,350.1,236.87Z" transform="translate(-286.12 -206)"/><path class="cls-2" d="M355.86,240.42a.22.22,0,0,1-.05.14.31.31,0,0,1-.17.1,1.05,1.05,0,0,1-.3.06,3.63,3.63,0,0,1-.5,0,3.55,3.55,0,0,1-.49,0,1.13,1.13,0,0,1-.31-.06.32.32,0,0,1-.16-.1.22.22,0,0,1-.05-.14V229.84a.3.3,0,0,1,.05-.15.4.4,0,0,1,.16-.1,1.1,1.1,0,0,1,.31-.07,3.38,3.38,0,0,1,.49,0,3.43,3.43,0,0,1,.5,0,1,1,0,0,1,.3.07.38.38,0,0,1,.17.1.3.3,0,0,1,.05.15Z" transform="translate(-286.12 -206)"/><path class="cls-2" d="M364.51,236.62a.79.79,0,0,1-.17.55.58.58,0,0,1-.45.18h-4.37a3.09,3.09,0,0,0,.11.83,1.71,1.71,0,0,0,.34.64,1.57,1.57,0,0,0,.62.39,2.38,2.38,0,0,0,.89.14,5.22,5.22,0,0,0,.94-.07c.26-.06.5-.11.69-.17l.49-.17a.94.94,0,0,1,.31-.08.21.21,0,0,1,.12,0,.16.16,0,0,1,.08.1.53.53,0,0,1,.05.2,3.33,3.33,0,0,1,0,.34,2.63,2.63,0,0,1,0,.3,1.25,1.25,0,0,1,0,.21.53.53,0,0,1-.05.15.83.83,0,0,1-.08.12.89.89,0,0,1-.29.15,3.57,3.57,0,0,1-.6.19,7,7,0,0,1-.82.16,6.45,6.45,0,0,1-1,.07,5.32,5.32,0,0,1-1.68-.24,3,3,0,0,1-1.2-.73,3,3,0,0,1-.72-1.24,5.81,5.81,0,0,1-.24-1.76,5.41,5.41,0,0,1,.25-1.72,3.61,3.61,0,0,1,.72-1.31,3.08,3.08,0,0,1,1.16-.81,4.35,4.35,0,0,1,3.07,0,2.7,2.7,0,0,1,1,.74,2.86,2.86,0,0,1,.61,1.11,5.21,5.21,0,0,1,.19,1.4Zm-2-.58a2.11,2.11,0,0,0-.35-1.34,1.32,1.32,0,0,0-1.13-.48,1.57,1.57,0,0,0-.67.14,1.38,1.38,0,0,0-.47.39,1.67,1.67,0,0,0-.29.58,2.7,2.7,0,0,0-.12.71Z" transform="translate(-286.12 -206)"/><path class="cls-2" d="M378.67,235.34a7.14,7.14,0,0,1-.37,2.45,4.13,4.13,0,0,1-1.08,1.66,4.21,4.21,0,0,1-1.7.94,8.33,8.33,0,0,1-2.38.31h-2.49a.69.69,0,0,1-.45-.16A.66.66,0,0,1,370,240V231a.59.59,0,0,1,.63-.67h2.67a7.34,7.34,0,0,1,2.36.33,4.45,4.45,0,0,1,1.64,1,4.21,4.21,0,0,1,1,1.59A6.28,6.28,0,0,1,378.67,235.34Zm-2.19.07a5.12,5.12,0,0,0-.17-1.38,2.94,2.94,0,0,0-.56-1.1,2.6,2.6,0,0,0-1-.73,4,4,0,0,0-1.57-.26h-1.07V239h1.1a4.22,4.22,0,0,0,1.47-.22,2.55,2.55,0,0,0,1-.68,3.05,3.05,0,0,0,.6-1.13A5.75,5.75,0,0,0,376.48,235.41Z" transform="translate(-286.12 -206)"/><path class="cls-2" d="M387.55,236.76a5.48,5.48,0,0,1-.24,1.67,3.52,3.52,0,0,1-.74,1.31,3.21,3.21,0,0,1-1.23.84,4.57,4.57,0,0,1-1.73.3,4.86,4.86,0,0,1-1.66-.26,3,3,0,0,1-1.18-.78,3.19,3.19,0,0,1-.69-1.24,5.87,5.87,0,0,1-.22-1.69,5.5,5.5,0,0,1,.24-1.68,3.52,3.52,0,0,1,.74-1.31,3.25,3.25,0,0,1,1.22-.84,4.57,4.57,0,0,1,1.73-.3,4.68,4.68,0,0,1,1.67.27,2.76,2.76,0,0,1,1.17.77,3.12,3.12,0,0,1,.69,1.24A5.88,5.88,0,0,1,387.55,236.76Zm-2.09.08a5.05,5.05,0,0,0-.08-1,2.28,2.28,0,0,0-.29-.77,1.39,1.39,0,0,0-.53-.52,1.74,1.74,0,0,0-.84-.18,1.77,1.77,0,0,0-.79.16,1.44,1.44,0,0,0-.56.48,2.44,2.44,0,0,0-.32.77,4.49,4.49,0,0,0-.11,1,4.85,4.85,0,0,0,.09,1,2.48,2.48,0,0,0,.28.78,1.33,1.33,0,0,0,.54.51,1.74,1.74,0,0,0,.84.18,1.77,1.77,0,0,0,.79-.16,1.44,1.44,0,0,0,.56-.48,2.29,2.29,0,0,0,.32-.76A4.52,4.52,0,0,0,385.46,236.84Z" transform="translate(-286.12 -206)"/><path class="cls-2" d="M400.57,240.42a.22.22,0,0,1-.05.14.32.32,0,0,1-.16.1,1.13,1.13,0,0,1-.31.06,3.48,3.48,0,0,1-.49,0,3.63,3.63,0,0,1-.5,0,1.13,1.13,0,0,1-.31-.06.32.32,0,0,1-.16-.1.21.21,0,0,1,0-.14v-4.26a2.73,2.73,0,0,0-.07-.66,2,2,0,0,0-.21-.51,1,1,0,0,0-.35-.33,1.16,1.16,0,0,0-1.25.17,5.24,5.24,0,0,0-.8.82v4.77a.22.22,0,0,1-.05.14.32.32,0,0,1-.16.1,1.22,1.22,0,0,1-.31.06,6,6,0,0,1-1,0,1.13,1.13,0,0,1-.31-.06.28.28,0,0,1-.16-.1.22.22,0,0,1,0-.14v-4.26a2.73,2.73,0,0,0-.07-.66,1.94,1.94,0,0,0-.2-.51,1,1,0,0,0-.36-.33,1.13,1.13,0,0,0-.51-.11,1.22,1.22,0,0,0-.74.28,4.82,4.82,0,0,0-.79.82v4.77a.22.22,0,0,1-.05.14.31.31,0,0,1-.17.1,1.06,1.06,0,0,1-.31.06,3.4,3.4,0,0,1-.49,0,3.48,3.48,0,0,1-.49,0,1.13,1.13,0,0,1-.31-.06.28.28,0,0,1-.16-.1.22.22,0,0,1-.05-.14v-7.18a.23.23,0,0,1,0-.14.32.32,0,0,1,.14-.1l.27-.06.42,0,.42,0,.27.06a.34.34,0,0,1,.13.1.23.23,0,0,1,0,.14v.83a4.56,4.56,0,0,1,1.19-1,2.47,2.47,0,0,1,1.23-.33,3.24,3.24,0,0,1,.8.1,2.38,2.38,0,0,1,.63.26,2,2,0,0,1,.48.42,2.47,2.47,0,0,1,.34.54,5.81,5.81,0,0,1,.63-.6,4,4,0,0,1,.61-.4,2.51,2.51,0,0,1,.6-.24,2.57,2.57,0,0,1,.62-.08,2.74,2.74,0,0,1,1.21.25,2.19,2.19,0,0,1,.79.65,2.76,2.76,0,0,1,.43,1,5,5,0,0,1,.13,1.18Z" transform="translate(-286.12 -206)"/><path class="cls-2" d="M408.67,240.45a.19.19,0,0,1-.08.17.48.48,0,0,1-.25.1l-.51,0-.53,0a.38.38,0,0,1-.23-.1.21.21,0,0,1-.07-.17v-.58a3.32,3.32,0,0,1-1,.75,3.05,3.05,0,0,1-1.26.26,3.51,3.51,0,0,1-1.05-.15,2.28,2.28,0,0,1-.83-.44,2.08,2.08,0,0,1-.54-.73,2.46,2.46,0,0,1-.2-1,2.34,2.34,0,0,1,.25-1.09,2,2,0,0,1,.73-.77,3.59,3.59,0,0,1,1.21-.44,8.46,8.46,0,0,1,1.68-.15h.7v-.43a2.64,2.64,0,0,0-.06-.6,1,1,0,0,0-.23-.42,1,1,0,0,0-.42-.25,2.35,2.35,0,0,0-.65-.08,3.52,3.52,0,0,0-.9.11,5.57,5.57,0,0,0-.7.25l-.52.25a.67.67,0,0,1-.33.12.25.25,0,0,1-.16-.06.5.5,0,0,1-.11-.16,1.38,1.38,0,0,1-.07-.26,3.28,3.28,0,0,1,0-.34,1.41,1.41,0,0,1,0-.39.68.68,0,0,1,.15-.26,1.45,1.45,0,0,1,.4-.26,4.33,4.33,0,0,1,.66-.26,5.79,5.79,0,0,1,.82-.2,5.62,5.62,0,0,1,.92-.08A5.49,5.49,0,0,1,407,233a2.41,2.41,0,0,1,1,.51,2,2,0,0,1,.57.88,4.36,4.36,0,0,1,.17,1.28Zm-2-3.08h-.77a4.77,4.77,0,0,0-.83.07,1.78,1.78,0,0,0-.57.22,1.05,1.05,0,0,0-.32.35,1.2,1.2,0,0,0-.1.47.91.91,0,0,0,.29.71,1.14,1.14,0,0,0,.79.26,1.45,1.45,0,0,0,.79-.22,3.12,3.12,0,0,0,.72-.63Z" transform="translate(-286.12 -206)"/><path class="cls-2" d="M412.87,230.81a1.14,1.14,0,0,1-.25.85,1.38,1.38,0,0,1-.92.23,1.35,1.35,0,0,1-.92-.22,1.1,1.1,0,0,1-.24-.82,1.2,1.2,0,0,1,.24-.85,1.43,1.43,0,0,1,.93-.23,1.33,1.33,0,0,1,.92.23A1.09,1.09,0,0,1,412.87,230.81Zm-.15,9.61a.22.22,0,0,1-.05.14.32.32,0,0,1-.16.1,1.13,1.13,0,0,1-.31.06,3.55,3.55,0,0,1-.49,0,3.4,3.4,0,0,1-.49,0,1.06,1.06,0,0,1-.31-.06.31.31,0,0,1-.17-.1.22.22,0,0,1-.05-.14v-7.16a.24.24,0,0,1,.05-.14.38.38,0,0,1,.17-.11,1.54,1.54,0,0,1,.31-.06,3.19,3.19,0,0,1,.49,0,3.38,3.38,0,0,1,.49,0,1.7,1.7,0,0,1,.31.06.41.41,0,0,1,.16.11.24.24,0,0,1,.05.14Z" transform="translate(-286.12 -206)"/><path class="cls-2" d="M421.6,240.42a.22.22,0,0,1-.05.14.32.32,0,0,1-.16.1,1.13,1.13,0,0,1-.31.06,3.55,3.55,0,0,1-.49,0,3.48,3.48,0,0,1-.49,0,1,1,0,0,1-.31-.06.35.35,0,0,1-.17-.1.21.21,0,0,1,0-.14v-4.09a3.56,3.56,0,0,0-.08-.83,2,2,0,0,0-.22-.51,1,1,0,0,0-.38-.33,1.25,1.25,0,0,0-.53-.11,1.31,1.31,0,0,0-.78.28,4.21,4.21,0,0,0-.82.82v4.77a.22.22,0,0,1,0,.14.31.31,0,0,1-.17.1,1.06,1.06,0,0,1-.31.06,3.4,3.4,0,0,1-.49,0,3.55,3.55,0,0,1-.49,0,1.13,1.13,0,0,1-.31-.06.32.32,0,0,1-.16-.1.22.22,0,0,1-.05-.14v-7.18a.23.23,0,0,1,0-.14.39.39,0,0,1,.14-.1l.27-.06.42,0,.43,0,.26.06a.34.34,0,0,1,.13.1.23.23,0,0,1,0,.14v.83a4.47,4.47,0,0,1,1.21-1,2.68,2.68,0,0,1,1.28-.33,2.88,2.88,0,0,1,1.24.25,2.1,2.1,0,0,1,.81.65,2.62,2.62,0,0,1,.45,1,5.74,5.74,0,0,1,.14,1.34Z" transform="translate(-286.12 -206)"/><rect class="cls-3" x="83.55" y="52.37" width="165.32" height="4.25"/><rect class="cls-3" x="83.55" y="60.87" width="165.32" height="4.25"/><rect class="cls-3" x="83.55" y="69.37" width="144.65" height="4.25"/><rect class="cls-3" x="83.55" y="103.87" width="73.77" height="4.25"/><rect class="cls-3" x="83.55" y="95.37" width="73.77" height="4.25"/><rect class="cls-3" x="83.55" y="112.37" width="73.77" height="4.25"/><rect class="cls-3" x="83.55" y="120.87" width="46.11" height="4.25"/><rect class="cls-3" x="22.92" y="52.71" width="37.96" height="4.25"/><rect class="cls-3" x="22.92" y="63.18" width="37.96" height="4.25"/><rect class="cls-3" x="22.92" y="73.65" width="37.96" height="4.25"/><rect class="cls-3" x="22.92" y="84.12" width="37.96" height="4.25"/><rect class="cls-3" x="22.92" y="94.6" width="37.96" height="4.25"/><rect class="cls-3" x="22.92" y="105.07" width="37.96" height="4.25"/><rect class="cls-3" x="22.92" y="115.54" width="37.96" height="4.25"/><rect class="cls-3" x="22.92" y="126.01" width="37.96" height="4.25"/><rect class="cls-4" x="190.16" y="25.04" width="56.69" height="11.34"/><rect class="cls-5" x="23.66" y="154.04" width="36.85" height="11.34"/><rect class="cls-3" x="171.55" y="94.67" width="77.32" height="58.67"/></svg>