<svg id="圖層_1" data-name="圖層 1" xmlns="http://www.w3.org/2000/svg" viewBox="0 0 270.95 183.5"><defs><style>.cls-1{fill:#d2e0d4;}.cls-2{fill:#a24b23;}.cls-3{fill:#807f80;}</style></defs><title>typesetting-10</title><rect class="cls-1" width="270.95" height="183.5"/><rect class="cls-2" x="24.35" y="20.04" width="102.05" height="5.67"/><rect class="cls-3" x="41.09" y="32.51" width="142.26" height="4.25"/><rect class="cls-3" x="41.09" y="40.99" width="120.66" height="4.25"/><rect class="cls-3" x="24.35" y="32.61" width="12.67" height="12.67"/><rect class="cls-2" x="24.35" y="60.71" width="85.04" height="5.67"/><rect class="cls-3" x="41.09" y="73.18" width="182.26" height="4.25"/><rect class="cls-3" x="41.09" y="81.65" width="141.76" height="4.25"/><rect class="cls-3" x="24.35" y="73.28" width="12.67" height="12.67"/><rect class="cls-2" x="24.35" y="101.37" width="113.39" height="5.67"/><rect class="cls-3" x="41.09" y="113.85" width="127.56" height="4.25"/><rect class="cls-3" x="41.09" y="122.32" width="56.69" height="4.25"/><rect class="cls-3" x="24.35" y="113.94" width="12.67" height="12.67"/><rect class="cls-2" x="24.35" y="141.37" width="102.05" height="5.67"/><rect class="cls-3" x="41.09" y="153.85" width="127.56" height="4.25"/><rect class="cls-3" x="41.09" y="162.32" width="99.21" height="4.25"/><rect class="cls-3" x="24.35" y="153.94" width="12.67" height="12.67"/></svg>