<svg id="圖層_1" data-name="圖層 1" xmlns="http://www.w3.org/2000/svg" viewBox="0 0 270.95 183.5"><defs><style>.cls-1{fill:#d2e0d4;}.cls-2{fill:#807f80;}.cls-3{fill:#383a3d;}</style></defs><title>typesetting-12</title><rect class="cls-1" width="270.95" height="183.5"/><rect class="cls-2" x="20.42" y="20.17" width="71.46" height="5.1"/><rect class="cls-2" x="31.75" y="29.94" width="42.52" height="5.1"/><rect class="cls-2" x="31.75" y="39.71" width="60.13" height="5.1"/><rect class="cls-2" x="20.42" y="62.5" width="71.46" height="5.1"/><rect class="cls-2" x="31.75" y="71.97" width="42.52" height="5.1"/><rect class="cls-2" x="31.75" y="81.44" width="45.35" height="5.1"/><rect class="cls-2" x="31.75" y="90.91" width="39.69" height="5.1"/><rect class="cls-2" x="46.52" y="100.37" width="45.35" height="5.1"/><rect class="cls-2" x="20.42" y="125.5" width="59.79" height="5.01"/><rect class="cls-2" x="31.75" y="135.27" width="42.52" height="5.1"/><rect class="cls-2" x="31.75" y="145.04" width="48.13" height="5.14"/><rect class="cls-3" x="109.88" y="20.17" width="139.5" height="47.84"/><rect class="cls-2" x="121.92" y="30.62" width="113.39" height="4.25"/><rect class="cls-2" x="121.92" y="40.62" width="113.39" height="4.25"/><rect class="cls-2" x="121.92" y="50.62" width="113.39" height="4.25"/><rect class="cls-3" x="109.88" y="80.17" width="139.5" height="81.34"/><rect class="cls-2" x="121.92" y="90.62" width="113.39" height="4.25"/><rect class="cls-2" x="121.92" y="100.62" width="113.39" height="4.25"/><rect class="cls-2" x="121.92" y="110.62" width="30.29" height="10.22"/><rect class="cls-2" x="121.92" y="131.29" width="99.29" height="17.55"/><rect class="cls-2" x="163.47" y="110.62" width="30.29" height="10.22"/><rect class="cls-2" x="205.02" y="110.62" width="30.29" height="10.22"/></svg>