<svg id="圖層_1" data-name="圖層 1" xmlns="http://www.w3.org/2000/svg" viewBox="0 0 270.95 183.5"><defs><style>.cls-1{fill:#d2e1d4;}.cls-2{fill:#807f80;}.cls-3{fill:#a34b23;}</style></defs><title>typesetting-15</title><rect class="cls-1" width="270.95" height="183.5"/><rect class="cls-2" x="18.1" y="22.33" width="104.88" height="11.34"/><rect class="cls-2" x="29.12" y="44.99" width="68.03" height="5.67"/><rect class="cls-2" x="29.12" y="56.66" width="79.25" height="5.67"/><rect class="cls-2" x="29.12" y="68.33" width="58.11" height="5.67"/><rect class="cls-2" x="18.1" y="136.21" width="104.88" height="4.25"/><rect class="cls-2" x="18.1" y="144.71" width="104.88" height="4.25"/><rect class="cls-2" x="18.1" y="153.21" width="65.55" height="4.25"/><rect class="cls-2" x="18.1" y="86.21" width="104.88" height="4.25"/><rect class="cls-2" x="18.1" y="94.33" width="104.88" height="4.25"/><rect class="cls-2" x="18.1" y="102.46" width="104.88" height="4.25"/><rect class="cls-2" x="18.1" y="110.58" width="104.88" height="4.25"/><rect class="cls-2" x="18.1" y="118.71" width="65.55" height="4.25"/><rect class="cls-3" x="175.83" y="21.2" width="70.87" height="14.17"/><rect class="cls-2" x="143.69" y="158.08" width="29.24" height="10.63"/><rect class="cls-2" x="180.74" y="158.08" width="29.24" height="10.63"/><rect class="cls-2" x="217.79" y="158.08" width="29.24" height="10.63"/><rect class="cls-2" x="143.69" y="84.59" width="103" height="69.5"/></svg>