<svg id="圖層_1" data-name="圖層 1" xmlns="http://www.w3.org/2000/svg" viewBox="0 0 270.95 183.5"><defs><style>.cls-1{fill:#d2e0d4;}.cls-2{fill:#807f80;}</style></defs><title>typesetting-2</title><rect class="cls-1" width="270.95" height="183.5"/><rect class="cls-2" x="21.09" y="28.04" width="65.2" height="4.25"/><rect class="cls-2" x="21.09" y="38.51" width="65.2" height="4.25"/><rect class="cls-2" x="21.09" y="48.99" width="65.2" height="4.25"/><rect class="cls-2" x="21.09" y="59.46" width="65.2" height="4.25"/><rect class="cls-2" x="21.09" y="69.93" width="51.02" height="4.25"/><rect class="cls-2" x="21.09" y="80.4" width="65.2" height="4.25"/><rect class="cls-2" x="21.09" y="90.87" width="65.2" height="4.25"/><rect class="cls-2" x="21.09" y="101.35" width="65.2" height="4.25"/><rect class="cls-2" x="21.09" y="111.82" width="65.2" height="4.25"/><rect class="cls-2" x="21.09" y="122.29" width="65.2" height="4.25"/><rect class="cls-2" x="21.09" y="132.76" width="28.35" height="4.25"/><rect class="cls-2" x="103.09" y="28.04" width="65.2" height="7.09"/><rect class="cls-2" x="103.09" y="37.71" width="65.2" height="7.09"/><rect class="cls-2" x="103.09" y="47.37" width="65.2" height="7.09"/><rect class="cls-2" x="103.09" y="57.04" width="65.2" height="7.09"/><rect class="cls-2" x="103.09" y="66.71" width="42.52" height="7.09"/><rect class="cls-2" x="103.09" y="76.37" width="65.2" height="7.09"/><rect class="cls-2" x="103.09" y="86.04" width="65.2" height="7.09"/><rect class="cls-2" x="103.09" y="95.71" width="65.2" height="7.09"/><rect class="cls-2" x="103.09" y="105.37" width="65.2" height="7.09"/><rect class="cls-2" x="103.09" y="115.04" width="53.86" height="7.09"/><rect class="cls-2" x="103.09" y="124.71" width="65.2" height="7.09"/><rect class="cls-2" x="103.09" y="134.37" width="65.2" height="7.09"/><rect class="cls-2" x="103.09" y="144.04" width="42.52" height="7.09"/><rect class="cls-2" x="185.42" y="28.04" width="65.2" height="4.25"/><rect class="cls-2" x="185.42" y="38.51" width="65.2" height="4.25"/><rect class="cls-2" x="185.42" y="48.99" width="39.69" height="4.25"/><rect class="cls-2" x="185.42" y="59.46" width="65.2" height="4.25"/><rect class="cls-2" x="185.42" y="69.93" width="65.2" height="4.25"/><rect class="cls-2" x="185.42" y="80.4" width="65.2" height="4.25"/><rect class="cls-2" x="185.42" y="90.87" width="34.02" height="4.25"/><rect class="cls-2" x="185.42" y="101.35" width="65.2" height="4.25"/><rect class="cls-2" x="185.42" y="111.82" width="65.2" height="4.25"/><rect class="cls-2" x="185.42" y="122.29" width="65.2" height="4.25"/><rect class="cls-2" x="185.42" y="132.76" width="65.2" height="4.25"/><rect class="cls-2" x="185.42" y="143.24" width="53.86" height="4.25"/></svg>