<svg id="圖層_1" data-name="圖層 1" xmlns="http://www.w3.org/2000/svg" viewBox="0 0 270.95 183.5"><defs><style>.cls-1{fill:#d2e0d4;}.cls-2{fill:#807f80;}.cls-3{fill:#a24b23;}</style></defs><title>typesetting-5</title><rect class="cls-1" width="270.95" height="183.5"/><rect class="cls-2" x="21.09" y="28.04" width="65.2" height="4.25"/><rect class="cls-2" x="21.09" y="38.51" width="65.2" height="4.25"/><rect class="cls-2" x="21.09" y="48.99" width="65.2" height="4.25"/><rect class="cls-2" x="21.09" y="59.46" width="65.2" height="4.25"/><rect class="cls-2" x="21.09" y="69.93" width="51.02" height="4.25"/><rect class="cls-2" x="21.09" y="80.4" width="65.2" height="4.25"/><rect class="cls-2" x="21.09" y="90.87" width="65.2" height="4.25"/><rect class="cls-2" x="21.09" y="101.35" width="65.2" height="4.25"/><rect class="cls-2" x="21.09" y="111.82" width="65.2" height="4.25"/><rect class="cls-2" x="21.09" y="122.29" width="65.2" height="4.25"/><rect class="cls-2" x="21.09" y="132.76" width="28.35" height="4.25"/><rect class="cls-3" x="115.42" y="28.04" width="99.21" height="5.67"/><rect class="cls-2" x="132.09" y="40.51" width="110.29" height="4.25"/><rect class="cls-2" x="132.09" y="48.99" width="93.54" height="4.25"/><rect class="cls-3" x="115.42" y="70.04" width="99.21" height="5.67"/><rect class="cls-2" x="132.09" y="82.51" width="110.29" height="4.25"/><rect class="cls-2" x="132.09" y="90.99" width="93.54" height="4.25"/><rect class="cls-3" x="115.42" y="112.04" width="99.21" height="5.67"/><rect class="cls-2" x="132.09" y="124.51" width="110.29" height="4.25"/><rect class="cls-2" x="132.09" y="132.99" width="93.54" height="4.25"/></svg>