<svg id="圖層_1" data-name="圖層 1" xmlns="http://www.w3.org/2000/svg" viewBox="0 0 270.95 183.5"><defs><style>.cls-1{fill:#d2e0d4;}.cls-2{fill:#383a3d;}.cls-3{fill:#807f80;}</style></defs><title>typesetting-8</title><rect class="cls-1" width="270.95" height="183.5"/><rect class="cls-2" x="102.38" y="33.5" width="65.5" height="112.5"/><rect class="cls-3" x="110.59" y="47.62" width="48.19" height="4.25"/><rect class="cls-3" x="110.59" y="60.38" width="48.19" height="4.25"/><rect class="cls-3" x="110.59" y="73.14" width="28.35" height="4.25"/><rect class="cls-3" x="110.59" y="85.89" width="48.19" height="4.25"/><rect class="cls-3" x="110.59" y="98.65" width="48.19" height="4.25"/><rect class="cls-3" x="110.59" y="111.4" width="48.19" height="4.25"/><rect class="cls-3" x="110.59" y="124.16" width="14.17" height="4.25"/><rect class="cls-2" x="183.88" y="33.5" width="65.5" height="112.5"/><rect class="cls-3" x="192.09" y="47.62" width="48.19" height="4.25"/><rect class="cls-3" x="192.09" y="60.38" width="48.19" height="4.25"/><rect class="cls-3" x="192.09" y="73.14" width="48.19" height="4.25"/><rect class="cls-3" x="192.09" y="85.89" width="22.68" height="4.25"/><rect class="cls-3" x="192.09" y="98.65" width="48.19" height="4.25"/><rect class="cls-3" x="192.09" y="111.4" width="48.19" height="4.25"/><rect class="cls-3" x="192.09" y="124.16" width="42.52" height="4.25"/><rect class="cls-2" x="20.38" y="33.5" width="65.5" height="112.5"/><rect class="cls-3" x="28.59" y="47.62" width="48.19" height="4.25"/><rect class="cls-3" x="28.59" y="60.38" width="42.52" height="4.25"/><rect class="cls-3" x="28.59" y="73.14" width="48.19" height="4.25"/><rect class="cls-3" x="28.59" y="85.89" width="48.19" height="4.25"/><rect class="cls-3" x="28.59" y="98.65" width="34.02" height="4.25"/><rect class="cls-3" x="28.59" y="111.4" width="48.19" height="4.25"/><rect class="cls-3" x="28.59" y="124.16" width="28.35" height="4.25"/></svg>