<svg id="圖層_1" data-name="圖層 1" xmlns="http://www.w3.org/2000/svg" viewBox="0 0 270.95 183.5"><defs><style>.cls-1{fill:#d2e1d4;}.cls-2{fill:#807f80;}.cls-3{fill:#a34b23;}</style></defs><title>typesetting-14</title><rect class="cls-1" width="270.95" height="183.5"/><rect class="cls-2" x="18.1" y="26.33" width="104.88" height="11.34"/><rect class="cls-2" x="29.12" y="54.99" width="68.03" height="5.67"/><rect class="cls-2" x="29.12" y="67.66" width="79.25" height="5.67"/><rect class="cls-2" x="29.12" y="80.33" width="58.11" height="5.67"/><rect class="cls-2" x="138.69" y="134.21" width="113.39" height="4.25"/><rect class="cls-2" x="138.69" y="142.71" width="113.39" height="4.25"/><rect class="cls-2" x="138.69" y="151.21" width="70.87" height="4.25"/><rect class="cls-2" x="18.1" y="134.21" width="104.88" height="4.25"/><rect class="cls-2" x="18.1" y="142.71" width="104.88" height="4.25"/><rect class="cls-2" x="18.1" y="151.21" width="65.55" height="4.25"/><rect class="cls-3" x="29.12" y="100.54" width="70.87" height="14.17"/><rect class="cls-2" x="138.69" y="104.08" width="29.24" height="10.63"/><rect class="cls-2" x="175.74" y="104.08" width="29.24" height="10.63"/><rect class="cls-2" x="212.79" y="104.08" width="29.24" height="10.63"/><rect class="cls-2" x="138.69" y="26.33" width="103" height="73.76"/></svg>