<svg id="圖層_1" data-name="圖層 1" xmlns="http://www.w3.org/2000/svg" viewBox="0 0 270.95 183.5"><defs><style>.cls-1{fill:#d2e1d4;}.cls-2{fill:#a34b23;}.cls-3{fill:#231815;}.cls-4{fill:#807f80;}</style></defs><title>typesetting-1</title><rect class="cls-1" width="270.95" height="183.5"/><path class="cls-2" d="M246.15,241.67a3.89,3.89,0,0,1,0,.53,1.84,1.84,0,0,1-.08.35.49.49,0,0,1-.14.19.32.32,0,0,1-.18.06h-7.15a.9.9,0,0,1-.61-.21.87.87,0,0,1-.25-.7V229.48a.84.84,0,0,1,.25-.69.86.86,0,0,1,.61-.22h7.1a.28.28,0,0,1,.18.06.42.42,0,0,1,.13.19,1.4,1.4,0,0,1,.08.35,4.11,4.11,0,0,1,0,.55,3.94,3.94,0,0,1,0,.52,1.21,1.21,0,0,1-.08.34.53.53,0,0,1-.13.2.28.28,0,0,1-.18.06h-5.08v3.47h4.3a.28.28,0,0,1,.18.06.47.47,0,0,1,.14.19,1.21,1.21,0,0,1,.08.34,3.84,3.84,0,0,1,0,.52,3.79,3.79,0,0,1,0,.53,1.31,1.31,0,0,1-.08.34.44.44,0,0,1-.14.18.35.35,0,0,1-.18.05h-4.3v4h5.13a.32.32,0,0,1,.18.06.49.49,0,0,1,.14.19,1.84,1.84,0,0,1,.08.35A3.89,3.89,0,0,1,246.15,241.67Z" transform="translate(-215.62 -209)"/><path class="cls-2" d="M257.06,242.23a.94.94,0,0,1,.08.31.26.26,0,0,1-.16.2,1.45,1.45,0,0,1-.47.1c-.22,0-.5,0-.85,0l-.8,0a2.36,2.36,0,0,1-.47-.06.83.83,0,0,1-.25-.12.43.43,0,0,1-.13-.19L252.19,239l-1.81,3.48a.52.52,0,0,1-.12.19.88.88,0,0,1-.24.12,2,2,0,0,1-.44.06l-.75,0c-.32,0-.58,0-.77,0a1.17,1.17,0,0,1-.42-.1.25.25,0,0,1-.14-.2.68.68,0,0,1,.1-.31l2.71-4.83-2.5-4.53a.91.91,0,0,1-.11-.33.22.22,0,0,1,.14-.22,1.28,1.28,0,0,1,.46-.11c.2,0,.49,0,.85,0s.58,0,.77,0a3.92,3.92,0,0,1,.46,0,.54.54,0,0,1,.24.11.59.59,0,0,1,.13.18l1.75,3.28,1.74-3.28a.31.31,0,0,1,.1-.15.41.41,0,0,1,.21-.11,2.14,2.14,0,0,1,.39-.07l.67,0,.78,0a1.17,1.17,0,0,1,.42.1.24.24,0,0,1,.12.21.79.79,0,0,1-.13.36l-2.44,4.46Z" transform="translate(-215.62 -209)"/><path class="cls-2" d="M266.89,242.46a.29.29,0,0,1-.11.24.83.83,0,0,1-.35.13,4.16,4.16,0,0,1-.7,0,4.2,4.2,0,0,1-.72,0,.69.69,0,0,1-.32-.13.31.31,0,0,1-.09-.24v-.78a4.39,4.39,0,0,1-1.38,1,4,4,0,0,1-1.72.37,4.73,4.73,0,0,1-1.44-.21,3.15,3.15,0,0,1-1.13-.6,2.64,2.64,0,0,1-.74-1,3.3,3.3,0,0,1-.27-1.38,3.15,3.15,0,0,1,.34-1.49,2.72,2.72,0,0,1,1-1,5,5,0,0,1,1.66-.61,11.9,11.9,0,0,1,2.29-.2h1v-.59a3.23,3.23,0,0,0-.09-.81,1.41,1.41,0,0,0-.31-.58,1.34,1.34,0,0,0-.57-.34,3.22,3.22,0,0,0-.89-.11,4.22,4.22,0,0,0-1.23.16,6.06,6.06,0,0,0-1,.34c-.28.12-.51.24-.7.34a1,1,0,0,1-.45.15.36.36,0,0,1-.22-.07.71.71,0,0,1-.15-.22,1.58,1.58,0,0,1-.09-.36,2.19,2.19,0,0,1,0-.46,1.91,1.91,0,0,1,.06-.54.68.68,0,0,1,.21-.35,1.91,1.91,0,0,1,.54-.36,6.8,6.8,0,0,1,.9-.35,8.15,8.15,0,0,1,1.13-.27,7.27,7.27,0,0,1,1.25-.11,7.58,7.58,0,0,1,2,.23,3.45,3.45,0,0,1,1.35.69,2.77,2.77,0,0,1,.77,1.2,5.74,5.74,0,0,1,.24,1.75Zm-2.72-4.2h-1.05a5.46,5.46,0,0,0-1.15.1,2.17,2.17,0,0,0-.77.3,1.2,1.2,0,0,0-.43.47,1.51,1.51,0,0,0-.14.65,1.25,1.25,0,0,0,.39,1,1.58,1.58,0,0,0,1.08.35,2,2,0,0,0,1.08-.3,4.74,4.74,0,0,0,1-.87Z" transform="translate(-215.62 -209)"/><path class="cls-2" d="M285.25,242.43a.31.31,0,0,1-.06.19.52.52,0,0,1-.22.14,1.74,1.74,0,0,1-.42.08,7.61,7.61,0,0,1-1.35,0,2,2,0,0,1-.43-.08.47.47,0,0,1-.22-.14.31.31,0,0,1-.06-.19v-5.82a4.16,4.16,0,0,0-.09-.9,2.11,2.11,0,0,0-.29-.7,1.38,1.38,0,0,0-.48-.45,1.39,1.39,0,0,0-.7-.16,1.65,1.65,0,0,0-1,.39,6.51,6.51,0,0,0-1.1,1.12v6.52a.31.31,0,0,1-.06.19.5.5,0,0,1-.23.14,2,2,0,0,1-.42.08,7.39,7.39,0,0,1-1.33,0,2,2,0,0,1-.43-.08.47.47,0,0,1-.22-.14.26.26,0,0,1-.07-.19v-5.82a4.16,4.16,0,0,0-.09-.9,2.62,2.62,0,0,0-.28-.7,1.35,1.35,0,0,0-1.18-.61,1.65,1.65,0,0,0-1,.39,6.15,6.15,0,0,0-1.09,1.12v6.52a.26.26,0,0,1-.07.19.47.47,0,0,1-.22.14,2,2,0,0,1-.43.08,6.06,6.06,0,0,1-.67,0,6.19,6.19,0,0,1-.67,0,2,2,0,0,1-.42-.08.5.5,0,0,1-.23-.14.31.31,0,0,1-.06-.19v-9.81a.38.38,0,0,1,.05-.19.45.45,0,0,1,.2-.14,1.2,1.2,0,0,1,.37-.08,4.45,4.45,0,0,1,.57,0,4.73,4.73,0,0,1,.58,0,1.07,1.07,0,0,1,.36.08.44.44,0,0,1,.18.14.38.38,0,0,1,.05.19v1.13a7.12,7.12,0,0,1,1.62-1.32,3.55,3.55,0,0,1,1.69-.44,4,4,0,0,1,1.09.13,2.89,2.89,0,0,1,.86.36,2.61,2.61,0,0,1,.66.57,3.22,3.22,0,0,1,.46.73,9.05,9.05,0,0,1,.86-.81,5.22,5.22,0,0,1,.84-.55,3.55,3.55,0,0,1,.83-.32,3.34,3.34,0,0,1,.84-.11,3.73,3.73,0,0,1,1.65.33,3,3,0,0,1,1.08.9,3.78,3.78,0,0,1,.59,1.32,7.57,7.57,0,0,1,.17,1.61Z" transform="translate(-215.62 -209)"/><path class="cls-2" d="M297.85,237.38a9.49,9.49,0,0,1-.28,2.36,5.37,5.37,0,0,1-.82,1.79,3.59,3.59,0,0,1-1.35,1.13,4.11,4.11,0,0,1-1.83.4,3.24,3.24,0,0,1-.79-.09,2.85,2.85,0,0,1-.69-.25,4.11,4.11,0,0,1-.67-.42,8.62,8.62,0,0,1-.68-.6v4.62a.34.34,0,0,1-.06.2.51.51,0,0,1-.23.15,1.9,1.9,0,0,1-.42.09,6.19,6.19,0,0,1-.67,0,5.94,5.94,0,0,1-.67,0,1.88,1.88,0,0,1-.43-.09.47.47,0,0,1-.22-.15.29.29,0,0,1-.07-.2v-13.7a.31.31,0,0,1,.06-.19.36.36,0,0,1,.19-.14,1.07,1.07,0,0,1,.36-.08,4.45,4.45,0,0,1,.57,0,4.22,4.22,0,0,1,.55,0,1.2,1.2,0,0,1,.37.08.41.41,0,0,1,.19.14.38.38,0,0,1,.05.19v1.15a11.35,11.35,0,0,1,.84-.77,4.79,4.79,0,0,1,.85-.56,4.11,4.11,0,0,1,.88-.34,4.37,4.37,0,0,1,1-.11,3.66,3.66,0,0,1,1.84.43,3.36,3.36,0,0,1,1.24,1.16,5.26,5.26,0,0,1,.7,1.71A9.92,9.92,0,0,1,297.85,237.38Zm-2.89.2a7.92,7.92,0,0,0-.09-1.21,3.49,3.49,0,0,0-.32-1,2,2,0,0,0-.59-.72,1.52,1.52,0,0,0-.92-.27,1.68,1.68,0,0,0-.54.08,1.75,1.75,0,0,0-.55.27,3.42,3.42,0,0,0-.58.48,7.28,7.28,0,0,0-.63.74v3.23a6.73,6.73,0,0,0,1.11,1.14,1.78,1.78,0,0,0,1.1.4,1.54,1.54,0,0,0,.92-.27,2.28,2.28,0,0,0,.62-.72,3.89,3.89,0,0,0,.36-1A5.32,5.32,0,0,0,295,237.58Z" transform="translate(-215.62 -209)"/><path class="cls-2" d="M302.83,242.43a.26.26,0,0,1-.07.19.47.47,0,0,1-.22.14,2,2,0,0,1-.43.08,6.06,6.06,0,0,1-.67,0,6.19,6.19,0,0,1-.67,0,1.84,1.84,0,0,1-.42-.08.5.5,0,0,1-.23-.14.31.31,0,0,1-.06-.19V228a.34.34,0,0,1,.06-.2.51.51,0,0,1,.23-.15,1.78,1.78,0,0,1,.42-.09,4.22,4.22,0,0,1,.67,0,4.14,4.14,0,0,1,.67,0,1.88,1.88,0,0,1,.43.09.47.47,0,0,1,.22.15.29.29,0,0,1,.07.2Z" transform="translate(-215.62 -209)"/><path class="cls-2" d="M314.65,237.24a1.08,1.08,0,0,1-.22.75.84.84,0,0,1-.63.24h-6a4.08,4.08,0,0,0,.15,1.14,2,2,0,0,0,1.31,1.41,3.7,3.7,0,0,0,1.23.19,6.83,6.83,0,0,0,1.27-.11,9.53,9.53,0,0,0,.95-.23c.27-.08.49-.16.67-.23a1.18,1.18,0,0,1,.43-.1.38.38,0,0,1,.16,0,.31.31,0,0,1,.11.14.9.9,0,0,1,.06.28c0,.12,0,.27,0,.46s0,.3,0,.41a2,2,0,0,1,0,.29.65.65,0,0,1-.06.21.79.79,0,0,1-.12.15.9.9,0,0,1-.39.21,5.18,5.18,0,0,1-.81.26,9.45,9.45,0,0,1-1.13.22,9.8,9.8,0,0,1-1.37.1,7.23,7.23,0,0,1-2.29-.33,4.12,4.12,0,0,1-1.64-1,4.27,4.27,0,0,1-1-1.7,7.84,7.84,0,0,1-.32-2.4,7.6,7.6,0,0,1,.34-2.36,4.75,4.75,0,0,1,1-1.78,4.23,4.23,0,0,1,1.58-1.11A5.3,5.3,0,0,1,310,232a5.58,5.58,0,0,1,2.11.36,3.86,3.86,0,0,1,1.43,1,4.09,4.09,0,0,1,.83,1.52,6.91,6.91,0,0,1,.26,1.92Zm-2.68-.79a2.91,2.91,0,0,0-.47-1.84A1.82,1.82,0,0,0,310,234a2,2,0,0,0-.91.2,1.88,1.88,0,0,0-.65.53,2.27,2.27,0,0,0-.4.79,4.36,4.36,0,0,0-.16,1Z" transform="translate(-215.62 -209)"/><path class="cls-2" d="M334,235.48a9.8,9.8,0,0,1-.51,3.35A5.84,5.84,0,0,1,332,241.1a6,6,0,0,1-2.33,1.29,11.2,11.2,0,0,1-3.26.41H323a.92.92,0,0,1-.61-.21.9.9,0,0,1-.25-.7V229.48a.81.81,0,0,1,.86-.91h3.65a10.1,10.1,0,0,1,3.23.45,5.66,5.66,0,0,1,2.23,1.32,5.5,5.5,0,0,1,1.38,2.16A8.51,8.51,0,0,1,334,235.48Zm-3,.1a7,7,0,0,0-.24-1.88,4.06,4.06,0,0,0-.76-1.51,3.55,3.55,0,0,0-1.34-1,5.61,5.61,0,0,0-2.15-.35h-1.46v9.68h1.5a5.79,5.79,0,0,0,2-.31,3.37,3.37,0,0,0,1.36-.93,4.1,4.1,0,0,0,.82-1.55A7.65,7.65,0,0,0,331,235.58Z" transform="translate(-215.62 -209)"/><path class="cls-2" d="M346.14,237.42a7.5,7.5,0,0,1-.33,2.29,4.85,4.85,0,0,1-1,1.78,4.44,4.44,0,0,1-1.69,1.16,6.3,6.3,0,0,1-2.36.41,6.56,6.56,0,0,1-2.28-.37,4.06,4.06,0,0,1-1.6-1.05,4.32,4.32,0,0,1-.95-1.71,8.07,8.07,0,0,1-.31-2.31,7.24,7.24,0,0,1,.34-2.29,4.73,4.73,0,0,1,1-1.78,4.34,4.34,0,0,1,1.67-1.15A6.3,6.3,0,0,1,341,232a6.59,6.59,0,0,1,2.29.36,4.06,4.06,0,0,1,1.6,1.05,4.46,4.46,0,0,1,.94,1.7A8.19,8.19,0,0,1,346.14,237.42Zm-2.85.11a6.92,6.92,0,0,0-.12-1.33,2.85,2.85,0,0,0-.39-1.06,1.91,1.91,0,0,0-.73-.71,2.33,2.33,0,0,0-1.15-.25,2.45,2.45,0,0,0-1.08.23,1.9,1.9,0,0,0-.75.66,3.09,3.09,0,0,0-.45,1,5.86,5.86,0,0,0-.15,1.39,7,7,0,0,0,.12,1.34,3.24,3.24,0,0,0,.39,1.06,2,2,0,0,0,.73.7,2.73,2.73,0,0,0,2.24,0,2.07,2.07,0,0,0,.76-.65,3.4,3.4,0,0,0,.44-1A6.5,6.5,0,0,0,343.29,237.53Z" transform="translate(-215.62 -209)"/><path class="cls-2" d="M363.93,242.43a.31.31,0,0,1-.06.19.52.52,0,0,1-.22.14,2,2,0,0,1-.42.08,7.61,7.61,0,0,1-1.35,0,2,2,0,0,1-.43-.08.47.47,0,0,1-.22-.14.31.31,0,0,1-.06-.19v-5.82a4.16,4.16,0,0,0-.09-.9,2.11,2.11,0,0,0-.29-.7,1.47,1.47,0,0,0-.48-.45,1.42,1.42,0,0,0-.7-.16,1.65,1.65,0,0,0-1,.39,6.16,6.16,0,0,0-1.1,1.12v6.52a.26.26,0,0,1-.07.19.47.47,0,0,1-.22.14,2,2,0,0,1-.43.08,5.86,5.86,0,0,1-.66,0,6.19,6.19,0,0,1-.67,0,2,2,0,0,1-.42-.08.5.5,0,0,1-.23-.14.31.31,0,0,1-.06-.19v-5.82a3.59,3.59,0,0,0-.1-.9,2.1,2.1,0,0,0-.28-.7,1.3,1.3,0,0,0-.48-.45,1.41,1.41,0,0,0-.69-.16,1.63,1.63,0,0,0-1,.39,6.15,6.15,0,0,0-1.09,1.12v6.52a.26.26,0,0,1-.07.19.47.47,0,0,1-.22.14,2,2,0,0,1-.43.08,6.06,6.06,0,0,1-.67,0,6.19,6.19,0,0,1-.67,0,1.74,1.74,0,0,1-.42-.08.5.5,0,0,1-.23-.14.31.31,0,0,1-.06-.19v-9.81a.3.3,0,0,1,.05-.19.4.4,0,0,1,.2-.14,1.13,1.13,0,0,1,.37-.08,4.39,4.39,0,0,1,.56,0,4.8,4.8,0,0,1,.59,0,1,1,0,0,1,.35.08.41.41,0,0,1,.19.14.38.38,0,0,1,.05.19v1.13a6.72,6.72,0,0,1,1.62-1.32A3.52,3.52,0,0,1,354,232a4.07,4.07,0,0,1,1.09.13,2.89,2.89,0,0,1,.86.36,2.8,2.8,0,0,1,.66.57,3.61,3.61,0,0,1,.46.73,9.05,9.05,0,0,1,.86-.81,4.47,4.47,0,0,1,.84-.55,3.58,3.58,0,0,1,1.66-.43,3.67,3.67,0,0,1,1.65.33,2.92,2.92,0,0,1,1.09.9,3.78,3.78,0,0,1,.59,1.32,7.57,7.57,0,0,1,.17,1.61Z" transform="translate(-215.62 -209)"/><path class="cls-2" d="M375,242.46a.29.29,0,0,1-.11.24.83.83,0,0,1-.35.13,4.16,4.16,0,0,1-.7,0,4.2,4.2,0,0,1-.72,0,.69.69,0,0,1-.32-.13.31.31,0,0,1-.09-.24v-.78a4.39,4.39,0,0,1-1.38,1,4,4,0,0,1-1.72.37,4.73,4.73,0,0,1-1.44-.21,3.15,3.15,0,0,1-1.13-.6,2.64,2.64,0,0,1-.74-1,3.3,3.3,0,0,1-.27-1.38,3.15,3.15,0,0,1,.34-1.49,2.72,2.72,0,0,1,1-1,5,5,0,0,1,1.66-.61,11.82,11.82,0,0,1,2.29-.2h1v-.59a3.23,3.23,0,0,0-.09-.81,1.54,1.54,0,0,0-.31-.58,1.34,1.34,0,0,0-.57-.34,3.22,3.22,0,0,0-.89-.11,4.33,4.33,0,0,0-1.24.16,6.28,6.28,0,0,0-1,.34c-.28.12-.51.24-.7.34a1,1,0,0,1-.45.15.36.36,0,0,1-.22-.07.71.71,0,0,1-.15-.22,1.58,1.58,0,0,1-.09-.36,2.19,2.19,0,0,1,0-.46,1.91,1.91,0,0,1,.06-.54.68.68,0,0,1,.21-.35,1.91,1.91,0,0,1,.54-.36,6.8,6.8,0,0,1,.9-.35,8.36,8.36,0,0,1,1.12-.27,7.47,7.47,0,0,1,1.26-.11,7.58,7.58,0,0,1,2,.23,3.45,3.45,0,0,1,1.35.69,2.67,2.67,0,0,1,.76,1.2,5.43,5.43,0,0,1,.25,1.75Zm-2.72-4.2h-1.06a5.43,5.43,0,0,0-1.14.1,2.17,2.17,0,0,0-.77.3,1.2,1.2,0,0,0-.43.47,1.38,1.38,0,0,0-.14.65,1.25,1.25,0,0,0,.39,1,1.58,1.58,0,0,0,1.08.35,2,2,0,0,0,1.07-.3,4.53,4.53,0,0,0,1-.87Z" transform="translate(-215.62 -209)"/><path class="cls-2" d="M380.75,229.3a1.58,1.58,0,0,1-.34,1.15,2.7,2.7,0,0,1-2.53,0,1.52,1.52,0,0,1-.32-1.11,1.62,1.62,0,0,1,.33-1.16,1.91,1.91,0,0,1,1.27-.32,1.86,1.86,0,0,1,1.26.31A1.51,1.51,0,0,1,380.75,229.3Zm-.21,13.13a.26.26,0,0,1-.07.19.47.47,0,0,1-.22.14,2,2,0,0,1-.43.08,6.06,6.06,0,0,1-.67,0,6.19,6.19,0,0,1-.67,0,1.84,1.84,0,0,1-.42-.08.5.5,0,0,1-.23-.14.31.31,0,0,1-.06-.19v-9.79a.31.31,0,0,1,.06-.19.5.5,0,0,1,.23-.14,1.73,1.73,0,0,1,.42-.1,6.19,6.19,0,0,1,.67,0,6.06,6.06,0,0,1,.67,0,1.82,1.82,0,0,1,.43.1.47.47,0,0,1,.22.14.26.26,0,0,1,.07.19Z" transform="translate(-215.62 -209)"/><path class="cls-2" d="M392.67,242.43a.26.26,0,0,1-.07.19.42.42,0,0,1-.22.14,1.74,1.74,0,0,1-.42.08,7.5,7.5,0,0,1-1.34,0,2,2,0,0,1-.43-.08.52.52,0,0,1-.22-.14.31.31,0,0,1-.06-.19v-5.6a4.61,4.61,0,0,0-.11-1.12,2.35,2.35,0,0,0-.3-.7,1.39,1.39,0,0,0-.51-.45,1.54,1.54,0,0,0-.73-.16,1.83,1.83,0,0,0-1.07.39,5.61,5.61,0,0,0-1.12,1.12v6.52a.26.26,0,0,1-.07.19.47.47,0,0,1-.22.14,2,2,0,0,1-.42.08,6.26,6.26,0,0,1-.68,0,6.19,6.19,0,0,1-.67,0,2,2,0,0,1-.42-.08.5.5,0,0,1-.23-.14.31.31,0,0,1-.06-.19v-9.81a.38.38,0,0,1,.05-.19.45.45,0,0,1,.2-.14,1.2,1.2,0,0,1,.37-.08,4.45,4.45,0,0,1,.57,0,4.62,4.62,0,0,1,.58,0,1.07,1.07,0,0,1,.36.08.44.44,0,0,1,.18.14.3.3,0,0,1,.05.19v1.13a6.67,6.67,0,0,1,1.66-1.32,3.75,3.75,0,0,1,1.75-.44,3.89,3.89,0,0,1,1.69.33,2.91,2.91,0,0,1,1.11.9,3.64,3.64,0,0,1,.61,1.32,7.51,7.51,0,0,1,.19,1.83Z" transform="translate(-215.62 -209)"/><path class="cls-3" d="M244.81,295.27a2.18,2.18,0,0,1,0,.38,1.11,1.11,0,0,1,0,.24.32.32,0,0,1-.1.14.2.2,0,0,1-.13,0h-5.09a.64.64,0,0,1-.43-.15.62.62,0,0,1-.18-.5V286.6a.62.62,0,0,1,.18-.5.64.64,0,0,1,.43-.15h5.06a.17.17,0,0,1,.12,0,.28.28,0,0,1,.1.13,2.61,2.61,0,0,1,.06.26c0,.1,0,.23,0,.38s0,.27,0,.37a1.85,1.85,0,0,1-.06.25.39.39,0,0,1-.1.14.17.17,0,0,1-.12,0h-3.62V290h3.06a.21.21,0,0,1,.13.05.28.28,0,0,1,.1.13,1,1,0,0,1,.06.24c0,.1,0,.23,0,.37a3.79,3.79,0,0,1,0,.38,1,1,0,0,1-.06.24.34.34,0,0,1-.1.13.28.28,0,0,1-.13,0h-3.06v2.86h3.65a.2.2,0,0,1,.13,0,.39.39,0,0,1,.1.14,1.22,1.22,0,0,1,0,.25A2.12,2.12,0,0,1,244.81,295.27Z" transform="translate(-215.62 -209)"/><path class="cls-3" d="M252.57,295.67a.32.32,0,0,1,.06.21.18.18,0,0,1-.11.15,1.1,1.1,0,0,1-.34.07l-.6,0H251a1.94,1.94,0,0,1-.33-.05.38.38,0,0,1-.18-.09.27.27,0,0,1-.09-.12l-1.29-2.48-1.29,2.48a.27.27,0,0,1-.09.12.34.34,0,0,1-.17.09,1.65,1.65,0,0,1-.32.05h-.53l-.54,0a.82.82,0,0,1-.3-.07.19.19,0,0,1-.1-.15.43.43,0,0,1,.07-.21l1.93-3.44L246,289a.6.6,0,0,1-.08-.24.15.15,0,0,1,.1-.15.74.74,0,0,1,.32-.08,4.82,4.82,0,0,1,.61,0l.55,0a2.34,2.34,0,0,1,.33,0,.38.38,0,0,1,.17.08.33.33,0,0,1,.09.13l1.25,2.33,1.23-2.33a.3.3,0,0,1,.07-.11.27.27,0,0,1,.15-.08,1.43,1.43,0,0,1,.28-.05l.48,0,.55,0a.66.66,0,0,1,.3.07.15.15,0,0,1,.08.15.68.68,0,0,1-.08.26l-1.74,3.17Z" transform="translate(-215.62 -209)"/><path class="cls-3" d="M259.57,295.83a.21.21,0,0,1-.08.17.55.55,0,0,1-.25.09,2.93,2.93,0,0,1-.49,0,3,3,0,0,1-.51,0A.46.46,0,0,1,258,296a.21.21,0,0,1-.07-.17v-.56a3,3,0,0,1-1,.72,2.76,2.76,0,0,1-1.22.26,3.72,3.72,0,0,1-1-.14,2.37,2.37,0,0,1-.8-.43,2,2,0,0,1-.53-.71,2.5,2.5,0,0,1-.19-1,2.24,2.24,0,0,1,.24-1.06,2,2,0,0,1,.71-.74,3.41,3.41,0,0,1,1.18-.43,8,8,0,0,1,1.64-.15h.68v-.42a2.34,2.34,0,0,0-.07-.57.9.9,0,0,0-.22-.41,1,1,0,0,0-.41-.25,2.28,2.28,0,0,0-.63-.07,3,3,0,0,0-.88.11,4.88,4.88,0,0,0-.68.24l-.5.24a.76.76,0,0,1-.32.11.25.25,0,0,1-.15-.05.38.38,0,0,1-.11-.16,1.26,1.26,0,0,1-.07-.25,1.72,1.72,0,0,1,0-.33,1.29,1.29,0,0,1,0-.38.55.55,0,0,1,.14-.26,1.64,1.64,0,0,1,.39-.25,4.51,4.51,0,0,1,.64-.25,5.53,5.53,0,0,1,.8-.19,5.29,5.29,0,0,1,.9-.08,5.68,5.68,0,0,1,1.4.16,2.31,2.31,0,0,1,1,.5,1.93,1.93,0,0,1,.55.85,4.2,4.2,0,0,1,.17,1.25Zm-1.93-3h-.75a3.92,3.92,0,0,0-.82.07,1.86,1.86,0,0,0-.55.21.87.87,0,0,0-.3.34,1,1,0,0,0-.1.46.88.88,0,0,0,.28.69,1.08,1.08,0,0,0,.77.25,1.45,1.45,0,0,0,.76-.21,3.24,3.24,0,0,0,.71-.62Z" transform="translate(-215.62 -209)"/><path class="cls-3" d="M272.63,295.81a.2.2,0,0,1,0,.13.4.4,0,0,1-.16.1,1,1,0,0,1-.3.06l-.47,0-.49,0a1.13,1.13,0,0,1-.3-.06.34.34,0,0,1-.16-.1.28.28,0,0,1,0-.13v-4.14a2.51,2.51,0,0,0-.07-.64,1.42,1.42,0,0,0-.2-.5.94.94,0,0,0-.34-.32,1,1,0,0,0-.5-.11,1.19,1.19,0,0,0-.71.27,4.59,4.59,0,0,0-.78.8v4.64a.21.21,0,0,1-.05.13.4.4,0,0,1-.16.1,1.13,1.13,0,0,1-.3.06l-.47,0-.48,0a1.05,1.05,0,0,1-.3-.06.34.34,0,0,1-.16-.1.21.21,0,0,1,0-.13v-4.14A3.1,3.1,0,0,0,266,291a1.93,1.93,0,0,0-.2-.5.89.89,0,0,0-.35-.32,1,1,0,0,0-.49-.11,1.2,1.2,0,0,0-.72.27,4.59,4.59,0,0,0-.78.8v4.64a.2.2,0,0,1,0,.13.4.4,0,0,1-.16.1,1.13,1.13,0,0,1-.3.06l-.48,0-.48,0a1.13,1.13,0,0,1-.3-.06.34.34,0,0,1-.16-.1.21.21,0,0,1-.05-.13v-7a.33.33,0,0,1,0-.14.39.39,0,0,1,.14-.1l.27-.06.4,0,.41,0,.26.06a.34.34,0,0,1,.13.1.33.33,0,0,1,0,.14v.8a4.76,4.76,0,0,1,1.15-.94,2.55,2.55,0,0,1,1.2-.31,3,3,0,0,1,.77.09,2.31,2.31,0,0,1,.62.26,2,2,0,0,1,.46.4,2.37,2.37,0,0,1,.33.53,5.42,5.42,0,0,1,.62-.58,3.85,3.85,0,0,1,.59-.4,2.83,2.83,0,0,1,.59-.22,2.35,2.35,0,0,1,.6-.08,2.6,2.6,0,0,1,1.17.24,2,2,0,0,1,.77.63,2.49,2.49,0,0,1,.42.95,5.24,5.24,0,0,1,.12,1.14Z" transform="translate(-215.62 -209)"/><path class="cls-3" d="M281.59,292.21a6.14,6.14,0,0,1-.2,1.68,3.68,3.68,0,0,1-.58,1.28,2.71,2.71,0,0,1-.95.8,2.93,2.93,0,0,1-1.31.28,2.47,2.47,0,0,1-.56-.06,2.22,2.22,0,0,1-.49-.18,3.15,3.15,0,0,1-.48-.3q-.22-.18-.48-.42v3.29a.27.27,0,0,1-.05.14.34.34,0,0,1-.16.1,1.48,1.48,0,0,1-.3.07l-.48,0-.47,0a1.61,1.61,0,0,1-.31-.07.49.49,0,0,1-.16-.1.25.25,0,0,1,0-.14v-9.75a.23.23,0,0,1,0-.14.28.28,0,0,1,.13-.1l.26-.06.4,0,.4,0,.26.06a.28.28,0,0,1,.13.1.23.23,0,0,1,0,.14v.82c.21-.21.41-.39.6-.55a4.17,4.17,0,0,1,.6-.4,2.41,2.41,0,0,1,.63-.24,3.1,3.1,0,0,1,.69-.08,2.67,2.67,0,0,1,1.31.3,2.5,2.5,0,0,1,.88.83,3.73,3.73,0,0,1,.5,1.22A7,7,0,0,1,281.59,292.21Zm-2,.15a5.9,5.9,0,0,0-.06-.86,2.6,2.6,0,0,0-.23-.73,1.34,1.34,0,0,0-.42-.51,1.1,1.1,0,0,0-.66-.2,1.21,1.21,0,0,0-.38.06,1.75,1.75,0,0,0-.39.19,3.11,3.11,0,0,0-.42.35,4.1,4.1,0,0,0-.44.52v2.3a4.37,4.37,0,0,0,.79.81,1.28,1.28,0,0,0,.78.29,1.07,1.07,0,0,0,.65-.2,1.59,1.59,0,0,0,.45-.51,2.55,2.55,0,0,0,.25-.72A3.53,3.53,0,0,0,279.54,292.36Z" transform="translate(-215.62 -209)"/><path class="cls-3" d="M285.14,295.81a.21.21,0,0,1-.05.13.4.4,0,0,1-.16.1,1.13,1.13,0,0,1-.3.06l-.48,0-.48,0a1.13,1.13,0,0,1-.3-.06.4.4,0,0,1-.16-.1.2.2,0,0,1,0-.13V285.52a.23.23,0,0,1,0-.14.41.41,0,0,1,.16-.11,1.13,1.13,0,0,1,.3-.06,3.86,3.86,0,0,1,1,0,1.13,1.13,0,0,1,.3.06.41.41,0,0,1,.16.11.24.24,0,0,1,.05.14Z" transform="translate(-215.62 -209)"/><path class="cls-3" d="M293.55,292.11a.83.83,0,0,1-.16.54.61.61,0,0,1-.45.17H288.7a3,3,0,0,0,.1.81,1.5,1.5,0,0,0,.34.62,1.44,1.44,0,0,0,.59.38,2.56,2.56,0,0,0,.87.14,4.81,4.81,0,0,0,.91-.08,6.29,6.29,0,0,0,.68-.16l.47-.17a.88.88,0,0,1,.31-.07.2.2,0,0,1,.11,0s.06.05.08.09a.83.83,0,0,1,0,.2c0,.09,0,.2,0,.33a2.53,2.53,0,0,1,0,.29,1.25,1.25,0,0,1,0,.21.46.46,0,0,1-.05.14.83.83,0,0,1-.08.12,1.87,1.87,0,0,1-.28.15,4.56,4.56,0,0,1-.58.18c-.23.06-.5.11-.8.16a7.59,7.59,0,0,1-1,.06,5.34,5.34,0,0,1-1.63-.23,3.14,3.14,0,0,1-1.17-.71,3.07,3.07,0,0,1-.7-1.21,5.73,5.73,0,0,1-.23-1.7,5.16,5.16,0,0,1,.25-1.68,3.48,3.48,0,0,1,.7-1.27,3,3,0,0,1,1.12-.79,3.73,3.73,0,0,1,1.49-.28,3.91,3.91,0,0,1,1.5.26,2.55,2.55,0,0,1,1,.72,2.83,2.83,0,0,1,.59,1.08,4.91,4.91,0,0,1,.19,1.36Zm-1.91-.56a2.09,2.09,0,0,0-.33-1.3,1.29,1.29,0,0,0-1.1-.48,1.41,1.41,0,0,0-1.12.52,1.69,1.69,0,0,0-.28.57,2.55,2.55,0,0,0-.11.69Z" transform="translate(-215.62 -209)"/><path class="cls-3" d="M307.32,290.86a7,7,0,0,1-.37,2.38,4.08,4.08,0,0,1-1,1.62,4.27,4.27,0,0,1-1.66.92,8.3,8.3,0,0,1-2.32.29h-2.41a.65.65,0,0,1-.44-.15.62.62,0,0,1-.17-.5V286.6a.62.62,0,0,1,.17-.5.65.65,0,0,1,.44-.15h2.59a7,7,0,0,1,2.3.32,4.18,4.18,0,0,1,1.59.93,4,4,0,0,1,1,1.54A6.24,6.24,0,0,1,307.32,290.86Zm-2.13.07a5.23,5.23,0,0,0-.17-1.34,2.85,2.85,0,0,0-.54-1.07,2.61,2.61,0,0,0-1-.71,4.07,4.07,0,0,0-1.53-.25h-1v6.89H302a4.15,4.15,0,0,0,1.42-.22,2.38,2.38,0,0,0,1-.67,2.84,2.84,0,0,0,.58-1.09A5.84,5.84,0,0,0,305.19,290.93Z" transform="translate(-215.62 -209)"/><path class="cls-3" d="M316,292.25a5.2,5.2,0,0,1-.24,1.62,3.43,3.43,0,0,1-.71,1.27,3.1,3.1,0,0,1-1.2.82,4.35,4.35,0,0,1-1.68.29,4.44,4.44,0,0,1-1.62-.26,2.84,2.84,0,0,1-1.14-.75,3,3,0,0,1-.67-1.21,6.05,6.05,0,0,1,0-3.27,3.37,3.37,0,0,1,.72-1.27,3.25,3.25,0,0,1,1.19-.82,4.54,4.54,0,0,1,1.68-.29,4.68,4.68,0,0,1,1.63.26,2.82,2.82,0,0,1,1.14.74,3.21,3.21,0,0,1,.67,1.22A5.89,5.89,0,0,1,316,292.25Zm-2,.08a5.64,5.64,0,0,0-.08-1,2.3,2.3,0,0,0-.28-.75,1.39,1.39,0,0,0-.52-.5,1.69,1.69,0,0,0-.82-.18,1.71,1.71,0,0,0-.77.16,1.4,1.4,0,0,0-.53.47,2,2,0,0,0-.32.74,4.22,4.22,0,0,0-.11,1,4.65,4.65,0,0,0,.09.95,2.45,2.45,0,0,0,.28.76,1.23,1.23,0,0,0,.52.49,1.67,1.67,0,0,0,.81.18,1.65,1.65,0,0,0,.77-.16,1.36,1.36,0,0,0,.54-.47,2,2,0,0,0,.32-.74A4.1,4.1,0,0,0,313.92,292.33Z" transform="translate(-215.62 -209)"/><path class="cls-3" d="M328.6,295.81a.2.2,0,0,1,0,.13.4.4,0,0,1-.16.1,1,1,0,0,1-.3.06l-.47,0-.49,0a1.13,1.13,0,0,1-.3-.06.34.34,0,0,1-.16-.1.2.2,0,0,1,0-.13v-4.14a2.51,2.51,0,0,0-.07-.64,1.42,1.42,0,0,0-.2-.5.94.94,0,0,0-.34-.32,1,1,0,0,0-.5-.11,1.17,1.17,0,0,0-.71.27,4.59,4.59,0,0,0-.78.8v4.64a.21.21,0,0,1-.05.13.4.4,0,0,1-.16.1,1.13,1.13,0,0,1-.3.06l-.47,0-.48,0a1,1,0,0,1-.3-.06.34.34,0,0,1-.16-.1.21.21,0,0,1-.05-.13v-4.14A2.51,2.51,0,0,0,322,291a1.63,1.63,0,0,0-.19-.5.89.89,0,0,0-.35-.32,1,1,0,0,0-.49-.11,1.2,1.2,0,0,0-.72.27,4.59,4.59,0,0,0-.78.8v4.64a.2.2,0,0,1,0,.13.4.4,0,0,1-.16.1,1.13,1.13,0,0,1-.3.06l-.48,0-.48,0a1.13,1.13,0,0,1-.3-.06.34.34,0,0,1-.16-.1.21.21,0,0,1-.05-.13v-7a.33.33,0,0,1,0-.14.32.32,0,0,1,.14-.1l.26-.06.41,0,.41,0,.26.06a.34.34,0,0,1,.13.1.32.32,0,0,1,0,.14v.8a5,5,0,0,1,1.16-.94,2.55,2.55,0,0,1,1.2-.31,3,3,0,0,1,.77.09,2.31,2.31,0,0,1,.62.26,2,2,0,0,1,.46.4,2.37,2.37,0,0,1,.33.53,5.42,5.42,0,0,1,.62-.58,3.85,3.85,0,0,1,.59-.4,2.83,2.83,0,0,1,.59-.22,2.35,2.35,0,0,1,.6-.08,2.6,2.6,0,0,1,1.17.24,2.08,2.08,0,0,1,.77.63,2.49,2.49,0,0,1,.42.95,5.24,5.24,0,0,1,.12,1.14Z" transform="translate(-215.62 -209)"/><path class="cls-3" d="M336.48,295.83a.19.19,0,0,1-.08.17.55.55,0,0,1-.24.09,3.16,3.16,0,0,1-.5,0,3,3,0,0,1-.51,0,.5.5,0,0,1-.23-.09.24.24,0,0,1-.07-.17v-.56a3,3,0,0,1-1,.72,2.73,2.73,0,0,1-1.22.26,3.64,3.64,0,0,1-1-.14,2.42,2.42,0,0,1-.81-.43,2,2,0,0,1-.53-.71,2.5,2.5,0,0,1-.18-1,2.36,2.36,0,0,1,.23-1.06,2,2,0,0,1,.72-.74,3.28,3.28,0,0,1,1.17-.43,8,8,0,0,1,1.64-.15h.68v-.42a1.93,1.93,0,0,0-.07-.57.82.82,0,0,0-.22-.41,1,1,0,0,0-.4-.25,2.28,2.28,0,0,0-.63-.07,3,3,0,0,0-.88.11,4.6,4.6,0,0,0-.69.24l-.49.24a.84.84,0,0,1-.33.11.25.25,0,0,1-.15-.05.38.38,0,0,1-.11-.16,1.26,1.26,0,0,1-.07-.25,3.25,3.25,0,0,1,0-.33,1.29,1.29,0,0,1,0-.38.5.5,0,0,1,.15-.26,1.54,1.54,0,0,1,.38-.25,5,5,0,0,1,.64-.25,5.87,5.87,0,0,1,.8-.19,5.29,5.29,0,0,1,.9-.08,5.56,5.56,0,0,1,1.4.16,2.31,2.31,0,0,1,1,.5,1.93,1.93,0,0,1,.55.85,4.2,4.2,0,0,1,.17,1.25Zm-1.93-3h-.75a3.92,3.92,0,0,0-.82.07,1.69,1.69,0,0,0-.54.21.9.9,0,0,0-.31.34,1,1,0,0,0-.1.46.88.88,0,0,0,.28.69,1.08,1.08,0,0,0,.77.25,1.45,1.45,0,0,0,.76-.21,3.24,3.24,0,0,0,.71-.62Z" transform="translate(-215.62 -209)"/><path class="cls-3" d="M340.57,286.46a1.13,1.13,0,0,1-.25.83,1.34,1.34,0,0,1-.9.22,1.29,1.29,0,0,1-.89-.22,1,1,0,0,1-.23-.79,1.12,1.12,0,0,1,.24-.82,1.27,1.27,0,0,1,.9-.23,1.31,1.31,0,0,1,.89.22A1.05,1.05,0,0,1,340.57,286.46Zm-.15,9.35a.21.21,0,0,1-.05.13.34.34,0,0,1-.16.1,1.13,1.13,0,0,1-.3.06l-.48,0-.48,0a1.13,1.13,0,0,1-.3-.06.4.4,0,0,1-.16-.1.2.2,0,0,1,0-.13v-7a.2.2,0,0,1,0-.13.41.41,0,0,1,.16-.11,1.76,1.76,0,0,1,.3-.06,3.85,3.85,0,0,1,1,0,1.76,1.76,0,0,1,.3.06.34.34,0,0,1,.16.11.21.21,0,0,1,.05.13Z" transform="translate(-215.62 -209)"/><path class="cls-3" d="M349.05,295.81a.21.21,0,0,1-.05.13.34.34,0,0,1-.16.1,1,1,0,0,1-.3.06l-.47,0-.48,0a1,1,0,0,1-.3-.06.34.34,0,0,1-.16-.1.21.21,0,0,1-.05-.13v-4A3.33,3.33,0,0,0,347,291a1.43,1.43,0,0,0-.22-.5.86.86,0,0,0-.36-.32,1.08,1.08,0,0,0-.52-.11,1.33,1.33,0,0,0-.76.27,4,4,0,0,0-.8.8v4.64a.2.2,0,0,1,0,.13.49.49,0,0,1-.16.1,1.13,1.13,0,0,1-.31.06l-.47,0-.48,0a1,1,0,0,1-.3-.06.34.34,0,0,1-.16-.1.21.21,0,0,1-.05-.13v-7a.23.23,0,0,1,0-.14.32.32,0,0,1,.14-.1l.26-.06.41,0,.41,0,.25.06a.28.28,0,0,1,.13.1.23.23,0,0,1,0,.14v.8a4.68,4.68,0,0,1,1.18-.94,2.78,2.78,0,0,1,1.25-.31,2.73,2.73,0,0,1,1.2.24,2.07,2.07,0,0,1,.79.63,2.66,2.66,0,0,1,.43.95,5.38,5.38,0,0,1,.14,1.3Z" transform="translate(-215.62 -209)"/><path class="cls-3" d="M242.4,352.44a1.85,1.85,0,0,1,0,.25.53.53,0,0,1,0,.16.35.35,0,0,1-.06.09l-.09,0h-3.36a.39.39,0,0,1-.28-.1.42.42,0,0,1-.12-.33v-5.83a.42.42,0,0,1,.12-.33.43.43,0,0,1,.28-.1h3.34a.11.11,0,0,1,.08,0,.17.17,0,0,1,.07.09s0,.1,0,.16,0,.16,0,.26,0,.18,0,.24a1.46,1.46,0,0,1,0,.17.22.22,0,0,1-.07.09.11.11,0,0,1-.08,0h-2.39V349h2a.14.14,0,0,1,.09,0,.15.15,0,0,1,.06.09.34.34,0,0,1,0,.16,1.54,1.54,0,0,1,0,.24,1.69,1.69,0,0,1,0,.25.34.34,0,0,1,0,.16.1.1,0,0,1-.06.08.14.14,0,0,1-.09,0h-2v1.89h2.41l.09,0a.35.35,0,0,1,.06.09.71.71,0,0,1,0,.17A1.78,1.78,0,0,1,242.4,352.44Z" transform="translate(-215.62 -209)"/><path class="cls-3" d="M247.53,352.7a.34.34,0,0,1,0,.15.12.12,0,0,1-.07.09.89.89,0,0,1-.23.05h-.77a.65.65,0,0,1-.22,0,.33.33,0,0,1-.12,0,.18.18,0,0,1-.06-.09l-.85-1.64-.86,1.64a.26.26,0,0,1,0,.09.28.28,0,0,1-.11,0,.58.58,0,0,1-.21,0h-.72a.56.56,0,0,1-.19-.05.12.12,0,0,1-.07-.09.37.37,0,0,1,.05-.15l1.27-2.27-1.18-2.13a.34.34,0,0,1,0-.15s0-.08.06-.11a.81.81,0,0,1,.21-.05h.77l.21,0a.27.27,0,0,1,.12.05l.06.08.82,1.54.82-1.54a.15.15,0,0,1,0-.07.19.19,0,0,1,.09-.05.5.5,0,0,1,.19,0h.68a.46.46,0,0,1,.2,0,.11.11,0,0,1,.05.1.35.35,0,0,1-.06.17l-1.14,2.1Z" transform="translate(-215.62 -209)"/><path class="cls-3" d="M252.15,352.81c0,.05,0,.09-.05.11a.3.3,0,0,1-.16.06,1.47,1.47,0,0,1-.33,0,1.53,1.53,0,0,1-.34,0,.26.26,0,0,1-.15-.06.12.12,0,0,1,0-.11v-.37a2,2,0,0,1-.65.48,1.92,1.92,0,0,1-.81.17,2,2,0,0,1-.67-.1,1.33,1.33,0,0,1-.89-.75,1.6,1.6,0,0,1-.12-.65,1.42,1.42,0,0,1,.16-.7,1.23,1.23,0,0,1,.47-.49,2.31,2.31,0,0,1,.78-.29,5.74,5.74,0,0,1,1.08-.09h.45v-.28a1.4,1.4,0,0,0,0-.38.69.69,0,0,0-.14-.27.61.61,0,0,0-.27-.16,1.27,1.27,0,0,0-.42-.05,2.1,2.1,0,0,0-.58.07,3.33,3.33,0,0,0-.45.16l-.33.16a.46.46,0,0,1-.21.07.15.15,0,0,1-.1,0,.31.31,0,0,1-.08-.11.62.62,0,0,1,0-.16,1.5,1.5,0,0,1,0-.22.81.81,0,0,1,0-.25.37.37,0,0,1,.1-.17,1,1,0,0,1,.25-.17,2.85,2.85,0,0,1,.42-.16,2.93,2.93,0,0,1,.53-.13,3.94,3.94,0,0,1,.6-.05,3.09,3.09,0,0,1,.92.11,1.54,1.54,0,0,1,.64.32,1.39,1.39,0,0,1,.36.57,2.5,2.5,0,0,1,.11.82Zm-1.27-2h-.5a2.83,2.83,0,0,0-.54,0,1,1,0,0,0-.36.14.55.55,0,0,0-.2.23.58.58,0,0,0-.07.3.55.55,0,0,0,.19.45.72.72,0,0,0,.5.17,1,1,0,0,0,.51-.14,2.12,2.12,0,0,0,.47-.41Z" transform="translate(-215.62 -209)"/><path class="cls-3" d="M260.79,352.79a.13.13,0,0,1,0,.1.29.29,0,0,1-.1.06l-.19,0h-.64a.88.88,0,0,1-.2,0,.29.29,0,0,1-.1-.06.17.17,0,0,1,0-.1v-2.73a1.79,1.79,0,0,0-.05-.42.82.82,0,0,0-.13-.33.66.66,0,0,0-.23-.21.67.67,0,0,0-.33-.08.79.79,0,0,0-.47.18,3.28,3.28,0,0,0-.51.53v3.06a.17.17,0,0,1,0,.1l-.11.06a.88.88,0,0,1-.2,0h-.62a.77.77,0,0,1-.2,0l-.11-.06a.17.17,0,0,1,0-.1v-2.73a2.61,2.61,0,0,0,0-.42,1,1,0,0,0-.14-.33.63.63,0,0,0-.22-.21.73.73,0,0,0-.33-.08.75.75,0,0,0-.47.18,3.28,3.28,0,0,0-.52.53v3.06a.17.17,0,0,1,0,.1l-.1.06a.88.88,0,0,1-.2,0h-.63a.77.77,0,0,1-.2,0l-.11-.06a.17.17,0,0,1,0-.1v-4.61a.16.16,0,0,1,0-.09.17.17,0,0,1,.09-.06.61.61,0,0,1,.17,0h.54a.53.53,0,0,1,.17,0l.09.06a.29.29,0,0,1,0,.09v.54a2.92,2.92,0,0,1,.76-.62,1.65,1.65,0,0,1,.8-.21,2,2,0,0,1,.51.06,1.36,1.36,0,0,1,.41.17,1.1,1.1,0,0,1,.3.27,1.33,1.33,0,0,1,.22.34,3.55,3.55,0,0,1,.41-.38,2.2,2.2,0,0,1,.39-.26,1.56,1.56,0,0,1,.39-.15,1.74,1.74,0,0,1,.39-.05,1.81,1.81,0,0,1,.78.15,1.43,1.43,0,0,1,.51.43,1.52,1.52,0,0,1,.27.62,3.08,3.08,0,0,1,.09.75Z" transform="translate(-215.62 -209)"/><path class="cls-3" d="M266.71,350.42a4.21,4.21,0,0,1-.14,1.11,2.32,2.32,0,0,1-.38.84,1.69,1.69,0,0,1-.63.53,1.86,1.86,0,0,1-.87.19,1.5,1.5,0,0,1-.37,0,1,1,0,0,1-.32-.12,1.49,1.49,0,0,1-.31-.2,2.67,2.67,0,0,1-.32-.28v2.18a.12.12,0,0,1,0,.09.2.2,0,0,1-.1.07l-.2,0-.32,0-.31,0-.2,0a.23.23,0,0,1-.11-.07.16.16,0,0,1,0-.09v-6.45a.16.16,0,0,1,0-.09l.09-.06a.61.61,0,0,1,.17,0h.53l.17,0,.09.06a.15.15,0,0,1,0,.09v.55c.14-.14.27-.26.4-.37a2.48,2.48,0,0,1,.4-.26,2.05,2.05,0,0,1,.41-.16,2.24,2.24,0,0,1,.46-.05,1.76,1.76,0,0,1,.86.2,1.58,1.58,0,0,1,.58.54,2.46,2.46,0,0,1,.33.81A4.39,4.39,0,0,1,266.71,350.42Zm-1.36.1a3.48,3.48,0,0,0,0-.57,1.69,1.69,0,0,0-.15-.48.87.87,0,0,0-.28-.34.69.69,0,0,0-.43-.13.75.75,0,0,0-.26,0,1.26,1.26,0,0,0-.26.13,1.31,1.31,0,0,0-.27.22,3.85,3.85,0,0,0-.29.35v1.52a2.62,2.62,0,0,0,.52.53.81.81,0,0,0,.51.19.72.72,0,0,0,.44-.13.94.94,0,0,0,.29-.33,2.08,2.08,0,0,0,.17-.48A3.05,3.05,0,0,0,265.35,350.52Z" transform="translate(-215.62 -209)"/><path class="cls-3" d="M269.05,352.79a.17.17,0,0,1,0,.1l-.11.06a.88.88,0,0,1-.2,0h-.63a.88.88,0,0,1-.2,0l-.11-.06a.17.17,0,0,1,0-.1V346a.17.17,0,0,1,0-.1.52.52,0,0,1,.11-.07l.2,0h.63l.2,0a.52.52,0,0,1,.11.07.17.17,0,0,1,0,.1Z" transform="translate(-215.62 -209)"/><path class="cls-3" d="M274.6,350.36a.52.52,0,0,1-.1.35.4.4,0,0,1-.29.11H271.4a1.81,1.81,0,0,0,.07.54.92.92,0,0,0,.22.4.9.9,0,0,0,.39.26,1.68,1.68,0,0,0,.58.09,3.45,3.45,0,0,0,.6-.05,3.71,3.71,0,0,0,.45-.11l.31-.11a.64.64,0,0,1,.2,0l.08,0a.1.1,0,0,1,.05.07.86.86,0,0,1,0,.13c0,.05,0,.12,0,.21s0,.14,0,.2,0,.09,0,.13a.3.3,0,0,1,0,.1l-.05.07a.44.44,0,0,1-.18.1l-.39.12a4.88,4.88,0,0,1-.53.11,4.31,4.31,0,0,1-.64,0,3.23,3.23,0,0,1-1.08-.16,1.85,1.85,0,0,1-1.23-1.26,3.8,3.8,0,0,1-.16-1.13,3.5,3.5,0,0,1,.17-1.11,2.28,2.28,0,0,1,.46-.84,2.07,2.07,0,0,1,.74-.52,2.57,2.57,0,0,1,1-.18,2.7,2.7,0,0,1,1,.17,1.73,1.73,0,0,1,.67.47,1.8,1.8,0,0,1,.39.72,3.16,3.16,0,0,1,.12.9Zm-1.26-.38a1.33,1.33,0,0,0-.22-.86.83.83,0,0,0-.72-.31,1,1,0,0,0-.44.09.91.91,0,0,0-.3.25,1.35,1.35,0,0,0-.19.38,2.12,2.12,0,0,0-.07.45Z" transform="translate(-215.62 -209)"/><path class="cls-3" d="M283.7,349.53a4.55,4.55,0,0,1-.24,1.57,2.68,2.68,0,0,1-.69,1.07,2.71,2.71,0,0,1-1.09.61,5.33,5.33,0,0,1-1.53.19h-1.6a.41.41,0,0,1-.29-.1.42.42,0,0,1-.12-.33v-5.83a.42.42,0,0,1,.12-.33.46.46,0,0,1,.29-.1h1.71a4.76,4.76,0,0,1,1.52.21,2.61,2.61,0,0,1,1.7,1.64A4,4,0,0,1,283.7,349.53Zm-1.4,0a3.12,3.12,0,0,0-.12-.88,1.89,1.89,0,0,0-.35-.71,1.86,1.86,0,0,0-.63-.47,2.64,2.64,0,0,0-1-.16h-.69v4.55h.71a2.61,2.61,0,0,0,.94-.15,1.6,1.6,0,0,0,.64-.44,1.9,1.9,0,0,0,.38-.72A3.83,3.83,0,0,0,282.3,349.57Z" transform="translate(-215.62 -209)"/><path class="cls-3" d="M289.4,350.44a3.66,3.66,0,0,1-.15,1.08,2.47,2.47,0,0,1-.47.84,2.22,2.22,0,0,1-.79.54,2.93,2.93,0,0,1-1.11.19,3.08,3.08,0,0,1-1.07-.17,1.84,1.84,0,0,1-.76-.5,1.89,1.89,0,0,1-.44-.8,3.61,3.61,0,0,1-.15-1.08,3.31,3.31,0,0,1,.16-1.08,2.16,2.16,0,0,1,.47-.84,2.14,2.14,0,0,1,.79-.54,2.9,2.9,0,0,1,1.11-.19,3.12,3.12,0,0,1,1.07.17,1.82,1.82,0,0,1,.76.49,2.29,2.29,0,0,1,.44.8A4,4,0,0,1,289.4,350.44Zm-1.34.05a3.05,3.05,0,0,0-.05-.62,1.73,1.73,0,0,0-.18-.5.93.93,0,0,0-.35-.33,1.08,1.08,0,0,0-.54-.12,1.12,1.12,0,0,0-.5.1.9.9,0,0,0-.36.31,1.64,1.64,0,0,0-.21.5,2.54,2.54,0,0,0-.07.65,3.06,3.06,0,0,0,.06.63,1.56,1.56,0,0,0,.18.5.81.81,0,0,0,.34.32,1.13,1.13,0,0,0,.54.12,1,1,0,0,0,.51-.11.88.88,0,0,0,.36-.3,1.69,1.69,0,0,0,.21-.49A3.23,3.23,0,0,0,288.06,350.49Z" transform="translate(-215.62 -209)"/><path class="cls-3" d="M297.77,352.79a.17.17,0,0,1,0,.1l-.11.06-.19,0h-.64a.88.88,0,0,1-.2,0,.29.29,0,0,1-.1-.06.17.17,0,0,1,0-.1v-2.73a2.61,2.61,0,0,0,0-.42,1,1,0,0,0-.14-.33.65.65,0,0,0-.55-.29.8.8,0,0,0-.48.18,3.28,3.28,0,0,0-.51.53v3.06a.17.17,0,0,1,0,.1l-.11.06a.88.88,0,0,1-.2,0h-.62a.77.77,0,0,1-.2,0l-.11-.06a.17.17,0,0,1,0-.1v-2.73a1.82,1.82,0,0,0,0-.42,1,1,0,0,0-.14-.33.56.56,0,0,0-.22-.21.7.7,0,0,0-.33-.08.75.75,0,0,0-.47.18,3.28,3.28,0,0,0-.52.53v3.06a.17.17,0,0,1,0,.1l-.1.06a.88.88,0,0,1-.2,0h-.63a.88.88,0,0,1-.2,0l-.11-.06a.17.17,0,0,1,0-.1v-4.61a.16.16,0,0,1,0-.09.23.23,0,0,1,.09-.06l.17,0h.54a.53.53,0,0,1,.17,0l.09.06a.29.29,0,0,1,0,.09v.54a2.8,2.8,0,0,1,.77-.62,1.58,1.58,0,0,1,.79-.21,2,2,0,0,1,.51.06,1.36,1.36,0,0,1,.41.17,1,1,0,0,1,.3.27,1.33,1.33,0,0,1,.22.34,3.55,3.55,0,0,1,.41-.38,2.2,2.2,0,0,1,.39-.26,1.56,1.56,0,0,1,.39-.15,1.74,1.74,0,0,1,.39-.05,1.81,1.81,0,0,1,.78.15,1.43,1.43,0,0,1,.51.43,1.52,1.52,0,0,1,.27.62,3.08,3.08,0,0,1,.09.75Z" transform="translate(-215.62 -209)"/><path class="cls-3" d="M303,352.81a.13.13,0,0,1-.05.11.3.3,0,0,1-.16.06,1.52,1.52,0,0,1-.33,0,1.48,1.48,0,0,1-.34,0,.26.26,0,0,1-.15-.06.12.12,0,0,1,0-.11v-.37a2,2,0,0,1-.65.48,1.92,1.92,0,0,1-.81.17,2.11,2.11,0,0,1-.68-.1,1.42,1.42,0,0,1-.53-.28,1.38,1.38,0,0,1-.35-.47,1.6,1.6,0,0,1-.12-.65,1.42,1.42,0,0,1,.16-.7,1.23,1.23,0,0,1,.47-.49,2.23,2.23,0,0,1,.78-.29,5.74,5.74,0,0,1,1.08-.09h.45v-.28a1.4,1.4,0,0,0-.05-.38.69.69,0,0,0-.14-.27.61.61,0,0,0-.27-.16,1.27,1.27,0,0,0-.42-.05,2,2,0,0,0-.58.07,3.33,3.33,0,0,0-.45.16l-.33.16a.46.46,0,0,1-.21.07.2.2,0,0,1-.11,0,.3.3,0,0,1-.07-.11.62.62,0,0,1,0-.16,1.5,1.5,0,0,1,0-.22.81.81,0,0,1,0-.25.37.37,0,0,1,.1-.17.81.81,0,0,1,.25-.17,2.85,2.85,0,0,1,.42-.16,2.93,2.93,0,0,1,.53-.13,3.83,3.83,0,0,1,.6-.05,3.09,3.09,0,0,1,.92.11,1.54,1.54,0,0,1,.64.32,1.39,1.39,0,0,1,.36.57,2.81,2.81,0,0,1,.11.82Zm-1.27-2h-.5a2.83,2.83,0,0,0-.54,0,1,1,0,0,0-.36.14.55.55,0,0,0-.2.23.66.66,0,0,0,.11.75.77.77,0,0,0,.51.17,1,1,0,0,0,.51-.14,2.12,2.12,0,0,0,.47-.41Z" transform="translate(-215.62 -209)"/><path class="cls-3" d="M305.67,346.62a.74.74,0,0,1-.16.55.87.87,0,0,1-.59.15.89.89,0,0,1-.6-.15.72.72,0,0,1-.15-.52.75.75,0,0,1,.16-.55,1.26,1.26,0,0,1,1.19,0A.72.72,0,0,1,305.67,346.62Zm-.1,6.17a.17.17,0,0,1,0,.1l-.1.06a.88.88,0,0,1-.2,0h-.63a.77.77,0,0,1-.2,0l-.11-.06a.17.17,0,0,1,0-.1v-4.6a.16.16,0,0,1,0-.09l.11-.06a.72.72,0,0,1,.2-.05h.63l.2.05.1.06a.16.16,0,0,1,0,.09Z" transform="translate(-215.62 -209)"/><path class="cls-3" d="M311.27,352.79a.17.17,0,0,1,0,.1.29.29,0,0,1-.1.06.88.88,0,0,1-.2,0h-.63a.88.88,0,0,1-.2,0,.29.29,0,0,1-.1-.06.17.17,0,0,1,0-.1v-2.63a2.27,2.27,0,0,0-.05-.52,1.26,1.26,0,0,0-.14-.33.72.72,0,0,0-.25-.21.71.71,0,0,0-.34-.08.88.88,0,0,0-.5.18,2.64,2.64,0,0,0-.53.53v3.06a.17.17,0,0,1,0,.1l-.1.06a.88.88,0,0,1-.2,0h-.63a.77.77,0,0,1-.2,0l-.11-.06a.17.17,0,0,1,0-.1v-4.61a.16.16,0,0,1,0-.09A.17.17,0,0,1,307,348a.61.61,0,0,1,.17,0h.54a.61.61,0,0,1,.17,0l.09.06a.29.29,0,0,1,0,.09v.54a2.83,2.83,0,0,1,.78-.62,1.72,1.72,0,0,1,.82-.21,1.9,1.9,0,0,1,.8.15,1.47,1.47,0,0,1,.52.43,1.69,1.69,0,0,1,.29.62,4.19,4.19,0,0,1,.08.86Z" transform="translate(-215.62 -209)"/><rect class="cls-4" x="22.09" y="41.37" width="226.77" height="4.25"/><rect class="cls-4" x="22.09" y="49.87" width="226.77" height="4.25"/><rect class="cls-4" x="22.09" y="58.37" width="198.43" height="4.25"/><rect class="cls-4" x="22.09" y="102.87" width="226.77" height="4.25"/><rect class="cls-4" x="22.09" y="94.37" width="226.77" height="4.25"/><rect class="cls-4" x="22.09" y="111.37" width="226.77" height="4.25"/><rect class="cls-4" x="22.09" y="119.87" width="141.73" height="4.25"/><rect class="cls-4" x="22.09" y="150.87" width="226.77" height="4.25"/><rect class="cls-4" x="22.09" y="159.37" width="184.25" height="4.25"/></svg>