<svg id="圖層_1" data-name="圖層 1" xmlns="http://www.w3.org/2000/svg" viewBox="0 0 257.26 153.65"><defs><style>.cls-1{fill:#1184c7;}.cls-2{fill:none;stroke:#231815;stroke-miterlimit:10;stroke-width:2px;}.cls-3{fill:#231815;}.cls-4{fill:#21457a;}</style></defs><title>web-t-door</title><path class="cls-1" d="M548.12,267.47a32.87,32.87,0,0,0-33.89-23.18,23,23,0,0,0-1-9.26,21.56,21.56,0,0,0-33.64-11.2,25.36,25.36,0,0,0-.76-3,24.64,24.64,0,0,0-46.11-2,28.32,28.32,0,0,0-38.86,34.46c.13.41.28.82.43,1.22A34,34,0,0,0,380.76,256,34.5,34.5,0,0,0,400,322.25a24.94,24.94,0,0,0,.72,2.86,22.57,22.57,0,0,0,28.49,14.62,23.14,23.14,0,0,0,4.35-2c.18.73.4,1.46.65,2.19,4.61,12.95,19.82,20,34,15.83a26.25,26.25,0,0,0,16-12.91,28.35,28.35,0,0,0,24,2.51c14.43-5,22.88-20.52,20.3-36C544.81,303.09,553.57,284.66,548.12,267.47Z" transform="translate(-292.48 -203.36)"/><line class="cls-2" x1="46.43" y1="31.02" x2="153.82" y2="72.53"/><polygon class="cls-3" points="42.44 29.52 47.12 35.23 49.73 28.32 42.44 29.52"/><line class="cls-2" x1="40.64" y1="43.23" x2="137.36" y2="105.67"/><polygon class="cls-3" points="37.04 40.94 40.46 47.49 44.42 41.25 37.04 40.94"/><line class="cls-2" x1="50.52" y1="20.09" x2="165.07" y2="31.53"/><polygon class="cls-3" points="46.27 19.7 52.3 23.96 52.98 16.61 46.27 19.7"/><circle class="cls-4" cx="18.95" cy="18.95" r="18.95"/></svg>