<svg id="圖層_1" data-name="圖層 1" xmlns="http://www.w3.org/2000/svg" viewBox="0 0 253 253"><defs><style>.cls-1{fill:#21457a;}.cls-2{fill:#1485c9;}.cls-3,.cls-5{fill:none;}.cls-3{stroke:#231815;stroke-miterlimit:10;}.cls-4{fill:#231815;}</style></defs><title>web-t-hub</title><circle class="cls-1" cx="127.23" cy="133.45" r="18.95"/><circle class="cls-2" cx="127.23" cy="44.59" r="18.95"/><circle class="cls-2" cx="42.71" cy="105.99" r="18.95"/><circle class="cls-2" cx="75" cy="205.34" r="18.95"/><circle class="cls-2" cx="179.46" cy="205.34" r="18.95"/><circle class="cls-2" cx="211.74" cy="105.99" r="18.95"/><line class="cls-3" x1="127.37" y1="111.5" x2="127.37" y2="67.5"/><polygon class="cls-4" points="127.37 66 123.68 72.4 131.06 72.4 127.37 66"/><polygon class="cls-4" points="127.37 113.5 131.06 107.1 123.68 107.1 127.37 113.5"/><line class="cls-3" x1="106.4" y1="126.53" x2="64.55" y2="112.94"/><polygon class="cls-4" points="63.12 112.47 68.07 117.96 70.35 110.94 63.12 112.47"/><polygon class="cls-4" points="108.3 127.15 103.36 121.66 101.07 128.69 108.3 127.15"/><line class="cls-3" x1="114.21" y1="151.13" x2="88.35" y2="186.72"/><polygon class="cls-4" points="87.47 187.94 94.21 184.93 88.24 180.59 87.47 187.94"/><polygon class="cls-4" points="115.39 149.51 108.64 152.51 114.61 156.85 115.39 149.51"/><line class="cls-3" x1="140.02" y1="151.29" x2="165.88" y2="186.89"/><polygon class="cls-4" points="166.76 188.1 165.99 180.76 160.01 185.1 166.76 188.1"/><polygon class="cls-4" points="138.84 149.68 139.61 157.02 145.59 152.68 138.84 149.68"/><line class="cls-3" x1="148.15" y1="126.8" x2="190" y2="113.21"/><polygon class="cls-4" points="191.42 112.74 184.2 111.21 186.48 118.23 191.42 112.74"/><polygon class="cls-4" points="146.25 127.42 153.47 128.96 151.19 121.93 146.25 127.42"/><rect class="cls-5" width="253" height="253"/></svg>