<svg id="圖層_1" data-name="圖層 1" xmlns="http://www.w3.org/2000/svg" viewBox="0 0 281.48 153.22"><defs><style>.cls-1{fill:#1184c7;}.cls-2{fill:none;stroke:#231815;stroke-miterlimit:10;stroke-width:2px;}.cls-3{fill:#231815;}.cls-4{fill:#21457a;}</style></defs><title>web-t-booksmarks</title><path class="cls-1" d="M542.72,283a32.88,32.88,0,0,0-33.9-23.18,22.85,22.85,0,0,0-.95-9.26,21.54,21.54,0,0,0-33.63-11.2,25.42,25.42,0,0,0-.77-3,24.64,24.64,0,0,0-46.11-2,28.33,28.33,0,0,0-38.86,34.46c.14.41.28.82.44,1.22a34,34,0,0,0-13.59,1.57,34.57,34.57,0,0,0-22,43.49,34.22,34.22,0,0,0,41.26,22.72,23,23,0,0,0,.72,2.86,22.56,22.56,0,0,0,28.48,14.62,23.14,23.14,0,0,0,4.35-1.95c.19.73.4,1.46.66,2.19,4.6,12.95,19.81,20,34,15.83a26.3,26.3,0,0,0,16-12.91,28.33,28.33,0,0,0,23.95,2.51c14.43-5,22.88-20.52,20.3-36C539.41,318.63,548.16,300.2,542.72,283Z" transform="translate(-262.85 -219.33)"/><line class="cls-2" x1="155.34" y1="38.17" x2="82.69" y2="16.61"/><polygon class="cls-3" points="159.43 39.39 154.34 34.02 152.24 41.11 159.43 39.39"/><circle class="cls-4" cx="160.38" cy="96.92" r="18.95"/><circle class="cls-4" cx="183.04" cy="48.25" r="18.95"/><path d="M266.11,220.57v6.24a4.87,4.87,0,0,1,5.79-1.42,3.39,3.39,0,0,1,1.36,1.06,3.94,3.94,0,0,1,.62,1.44,12.91,12.91,0,0,1,.17,2.44v7.22H270.8v-6.5a9.61,9.61,0,0,0-.19-2.45,1.58,1.58,0,0,0-.65-.83,2.1,2.1,0,0,0-1.18-.31,2.74,2.74,0,0,0-1.45.39,2.34,2.34,0,0,0-.93,1.19,7,7,0,0,0-.29,2.35v6.16h-3.26v-17Z" transform="translate(-262.85 -219.33)"/><path d="M283,225.25v2.59h-2.22v5a13,13,0,0,0,.06,1.75.67.67,0,0,0,.29.41.9.9,0,0,0,.55.17,4.23,4.23,0,0,0,1.31-.32l.27,2.53a6.51,6.51,0,0,1-2.57.48,4,4,0,0,1-1.58-.29,2.31,2.31,0,0,1-1-.77,3,3,0,0,1-.46-1.26,16,16,0,0,1-.1-2.3v-5.36H276v-2.59h1.49v-2.44l3.27-1.9v4.34Z" transform="translate(-262.85 -219.33)"/><path d="M290.89,225.25v2.59h-2.23v5a10.69,10.69,0,0,0,.07,1.75.63.63,0,0,0,.29.41.9.9,0,0,0,.55.17,4.18,4.18,0,0,0,1.3-.32l.28,2.53a6.51,6.51,0,0,1-2.57.48,4,4,0,0,1-1.58-.29,2.26,2.26,0,0,1-1-.77,3,3,0,0,1-.46-1.26,16,16,0,0,1-.1-2.3v-5.36h-1.5v-2.59h1.5v-2.44l3.26-1.9v4.34Z" transform="translate(-262.85 -219.33)"/><path d="M293.05,225.25h3v1.81a4.64,4.64,0,0,1,1.6-1.51,4.38,4.38,0,0,1,2.24-.58,4.68,4.68,0,0,1,3.63,1.68,6.78,6.78,0,0,1,1.5,4.68,7,7,0,0,1-1.51,4.79,4.71,4.71,0,0,1-3.65,1.7,4.11,4.11,0,0,1-1.84-.4A6.07,6.07,0,0,1,296.3,236v6.19h-3.25Zm3.22,5.94a4.72,4.72,0,0,0,.82,3.06,2.52,2.52,0,0,0,2,1,2.34,2.34,0,0,0,1.89-.91,4.68,4.68,0,0,0,.75-3,4.43,4.43,0,0,0-.77-2.87,2.39,2.39,0,0,0-1.92-.94,2.49,2.49,0,0,0-2,.92A4.1,4.1,0,0,0,296.27,231.19Z" transform="translate(-262.85 -219.33)"/><path d="M306.48,234l3.27-.5a2.42,2.42,0,0,0,.84,1.44,2.86,2.86,0,0,0,1.79.49,3.17,3.17,0,0,0,1.89-.46,1,1,0,0,0,.43-.87.83.83,0,0,0-.23-.61,2.46,2.46,0,0,0-1.09-.43,17.52,17.52,0,0,1-5-1.59,3.16,3.16,0,0,1-1.46-2.76,3.4,3.4,0,0,1,1.27-2.69,5.85,5.85,0,0,1,3.91-1.09,6.91,6.91,0,0,1,3.75.82,4.2,4.2,0,0,1,1.69,2.44l-3.07.56a1.93,1.93,0,0,0-.74-1.1,2.78,2.78,0,0,0-1.57-.38,3.51,3.51,0,0,0-1.84.36.76.76,0,0,0-.37.66.7.7,0,0,0,.32.59,12,12,0,0,0,3,.91,9.2,9.2,0,0,1,3.63,1.45,3,3,0,0,1,1,2.42,3.72,3.72,0,0,1-1.41,2.91,6.28,6.28,0,0,1-4.18,1.21,6.94,6.94,0,0,1-4-1A4.71,4.71,0,0,1,306.48,234Z" transform="translate(-262.85 -219.33)"/><path d="M321.44,228.5v-3.25h3.26v3.25Zm0,9.05v-3.26h3.26v3.26Z" transform="translate(-262.85 -219.33)"/><path d="M327,237.84l4.2-17.56h2.44l-4.25,17.56Z" transform="translate(-262.85 -219.33)"/><path d="M333.57,237.84l4.2-17.56h2.44L336,237.84Z" transform="translate(-262.85 -219.33)"/></svg>