<svg id="圖層_1" data-name="圖層 1" xmlns="http://www.w3.org/2000/svg" viewBox="0 0 228.67 228.67"><defs><style>.cls-1{fill:#21457a;}.cls-2{fill:#231815;}</style></defs><title>web-t-pan</title><circle class="cls-1" cx="114.33" cy="114.25" r="48.99"/><polygon class="cls-2" points="114.33 0 71.03 36.33 157.63 36.33 114.33 0"/><rect class="cls-2" x="110" y="31.33" width="8.67" height="26.67"/><polygon class="cls-2" points="114.33 228.67 157.63 192.33 71.03 192.33 114.33 228.67"/><rect class="cls-2" x="416.96" y="354" width="8.67" height="26.67" transform="translate(535.63 551.33) rotate(180)"/><polygon class="cls-2" points="0 114.33 36.33 157.63 36.33 71.03 0 114.33"/><rect class="cls-2" x="347.3" y="284.33" width="8.67" height="26.67" transform="translate(-253 465.96) rotate(-90)"/><polygon class="cls-2" points="228.67 114.33 192.33 71.03 192.33 157.63 228.67 114.33"/><rect class="cls-2" x="486.63" y="284.33" width="8.67" height="26.67" transform="translate(481.67 -376.63) rotate(90)"/></svg>