<svg id="圖層_1" data-name="圖層 1" xmlns="http://www.w3.org/2000/svg" viewBox="0 0 345.91 206.09"><defs><style>.cls-1{fill:#21457a;}.cls-2{fill:none;stroke:#231815;stroke-miterlimit:10;}.cls-3{fill:#231815;}</style></defs><title>web-t-pyramid</title><circle class="cls-1" cx="171.95" cy="18.95" r="18.95"/><circle class="cls-1" cx="18.95" cy="187.14" r="18.95"/><line class="cls-2" x1="94.14" y1="187.14" x2="43.67" y2="187.14"/><polygon class="cls-3" points="42.17 187.13 48.57 190.83 48.57 183.44 42.17 187.13"/><polygon class="cls-3" points="98.41 187.13 92.01 183.44 92.01 190.83 98.41 187.13"/><circle class="cls-1" cx="121.62" cy="187.14" r="18.95"/><line class="cls-2" x1="196.81" y1="187.14" x2="146.34" y2="187.14"/><polygon class="cls-3" points="144.84 187.13 151.23 190.83 151.23 183.44 144.84 187.13"/><polygon class="cls-3" points="201.07 187.13 194.68 183.44 194.68 190.83 201.07 187.13"/><circle class="cls-1" cx="224.29" cy="187.14" r="18.95"/><circle class="cls-1" cx="326.95" cy="187.14" r="18.95"/><line class="cls-2" x1="299.47" y1="187.14" x2="249" y2="187.14"/><polygon class="cls-3" points="247.5 187.13 253.9 190.83 253.9 183.44 247.5 187.13"/><polygon class="cls-3" points="303.74 187.13 297.34 183.44 297.34 190.83 303.74 187.13"/><line class="cls-2" x1="163.07" y1="49.89" x2="130.03" y2="155.22"/><polygon class="cls-3" points="128.69 159.31 134.13 154.31 127.08 152.1 128.69 159.31"/><polygon class="cls-3" points="164.34 45.82 158.91 50.82 165.95 53.03 164.34 45.82"/><line class="cls-2" x1="152.74" y1="39.4" x2="37.7" y2="160.81"/><polygon class="cls-3" points="34.73 163.87 41.77 161.76 36.41 156.76 34.73 163.87"/><polygon class="cls-3" points="154.08 38.56 147.03 40.66 152.39 45.67 154.08 38.56"/><line class="cls-2" x1="182.61" y1="50.39" x2="215.65" y2="155.72"/><polygon class="cls-3" points="216.99 159.81 211.55 154.81 218.6 152.6 216.99 159.81"/><polygon class="cls-3" points="181.34 46.32 186.77 51.32 179.72 53.53 181.34 46.32"/><line class="cls-2" x1="192.94" y1="39.9" x2="307.98" y2="161.31"/><polygon class="cls-3" points="310.95 164.37 303.91 162.26 309.27 157.26 310.95 164.37"/><polygon class="cls-3" points="191.6 39.06 198.65 41.16 193.29 46.17 191.6 39.06"/></svg>