<svg id="圖層_1" data-name="圖層 1" xmlns="http://www.w3.org/2000/svg" viewBox="0 0 392.57 212.84"><defs><style>.cls-1{fill:#21457a;}.cls-2,.cls-4{fill:none;}.cls-2{stroke:#231815;stroke-miterlimit:10;}.cls-3{fill:#231815;}</style></defs><title>web-t-step</title><circle class="cls-1" cx="39.85" cy="105.88" r="18.95"/><line class="cls-2" x1="115.04" y1="105.88" x2="64.57" y2="105.88"/><polygon class="cls-3" points="63.06 105.88 69.46 109.57 69.46 102.18 63.06 105.88"/><polygon class="cls-3" points="119.3 105.88 112.91 102.18 112.91 109.57 119.3 105.88"/><circle class="cls-1" cx="142.52" cy="105.88" r="18.95"/><line class="cls-2" x1="217.7" y1="105.88" x2="167.23" y2="105.88"/><polygon class="cls-3" points="165.73 105.88 172.13 109.57 172.13 102.18 165.73 105.88"/><polygon class="cls-3" points="221.97 105.88 215.57 102.18 215.57 109.57 221.97 105.88"/><circle class="cls-1" cx="245.18" cy="105.88" r="18.95"/><circle class="cls-1" cx="347.85" cy="105.88" r="18.95"/><line class="cls-2" x1="320.37" y1="105.88" x2="269.9" y2="105.88"/><polygon class="cls-3" points="268.4 105.88 274.8 109.57 274.8 102.18 268.4 105.88"/><polygon class="cls-3" points="324.64 105.88 318.24 102.18 318.24 109.57 324.64 105.88"/><rect class="cls-4" width="392.57" height="212.84"/></svg>