<svg id="圖層_1" data-name="圖層 1" xmlns="http://www.w3.org/2000/svg" viewBox="0 0 258.52 132.45"><defs><style>.cls-1{fill:#21457a;}.cls-2{fill:#1184c7;}.cls-3{fill:none;stroke:#231815;stroke-miterlimit:10;stroke-width:2px;}.cls-4{fill:#231815;}</style></defs><title>web-t-modalpanel</title><circle class="cls-1" cx="239.56" cy="66.92" r="18.95"/><path class="cls-2" d="M458.82,286.38a28.4,28.4,0,0,0-29.3-20,19.83,19.83,0,0,0-.82-8,18.65,18.65,0,0,0-29.08-9.69,20.5,20.5,0,0,0-.66-2.59,21.3,21.3,0,0,0-39.86-1.77,24.49,24.49,0,0,0-33.59,29.79c.12.36.24.72.37,1.06a29.35,29.35,0,0,0-11.74,1.36,29.88,29.88,0,0,0-19,37.59,29.58,29.58,0,0,0,35.67,19.64,18.21,18.21,0,0,0,.62,2.47A19.51,19.51,0,0,0,356,348.84a19,19,0,0,0,3.75-1.68q.24.94.57,1.89c4,11.2,17.13,17.32,29.37,13.68a22.64,22.64,0,0,0,13.86-11.16,24.48,24.48,0,0,0,20.71,2.18c12.47-4.32,19.78-17.74,17.55-31.12C456,317.17,463.53,301.24,458.82,286.38Z" transform="translate(-293.67 -231.33)"/><line class="cls-3" x1="209.78" y1="58.45" x2="134" y2="58.45"/><polygon class="cls-4" points="214.04 58.45 207.65 54.76 207.65 62.14 214.04 58.45"/><line class="cls-3" x1="138.26" y1="75.12" x2="214.04" y2="75.12"/><polygon class="cls-4" points="134 75.12 140.4 78.81 140.4 71.42 134 75.12"/></svg>