<svg id="圖層_1" data-name="圖層 1" xmlns="http://www.w3.org/2000/svg" viewBox="0 0 244.07 158.54"><defs><style>.cls-1{fill:#1184c7;}.cls-2{fill:none;stroke:#231815;stroke-miterlimit:10;stroke-width:2px;}.cls-3{fill:#231815;}.cls-4{fill:#21457a;}</style></defs><title>web-t-points</title><path class="cls-1" d="M542.72,283a32.88,32.88,0,0,0-33.9-23.18,22.85,22.85,0,0,0-.95-9.26,21.54,21.54,0,0,0-33.63-11.2,25.42,25.42,0,0,0-.77-3,24.64,24.64,0,0,0-46.11-2,28.33,28.33,0,0,0-38.86,34.46c.14.41.28.82.44,1.22a34,34,0,0,0-13.59,1.57,34.57,34.57,0,0,0-22,43.49,34.22,34.22,0,0,0,41.26,22.72,23,23,0,0,0,.72,2.86,22.56,22.56,0,0,0,28.48,14.62,23.14,23.14,0,0,0,4.35-1.95c.19.73.4,1.46.66,2.19,4.6,12.95,19.81,20,34,15.83a26.3,26.3,0,0,0,16-12.91,28.33,28.33,0,0,0,23.95,2.51c14.43-5,22.88-20.52,20.3-36C539.41,318.63,548.16,300.2,542.72,283Z" transform="translate(-300.26 -215.81)"/><line class="cls-2" x1="117.93" y1="41.7" x2="45.28" y2="20.14"/><polygon class="cls-3" points="122.02 42.91 116.94 37.55 114.83 44.63 122.02 42.91"/><line class="cls-2" x1="98.77" y1="112.13" x2="29.52" y2="142.88"/><polygon class="cls-3" points="102.67 110.4 95.33 109.62 98.32 116.37 102.67 110.4"/><circle class="cls-4" cx="122.97" cy="100.45" r="18.95"/><circle class="cls-4" cx="145.63" cy="51.78" r="18.95"/><path class="cls-3" d="M320.7,237.47l-3.1,8.71h-4.47l10.72-30.37h5.59l11.18,30.37h-4.79l-3.2-8.71Zm10.82-3.82c-2.75-7.68-4.3-11.9-5-14.29h-.05c-.74,2.65-2.47,7.72-4.69,14.29Z" transform="translate(-300.26 -215.81)"/><path class="cls-3" d="M300.26,344h12c6.6,0,9.55,3.46,9.55,7.62a6.7,6.7,0,0,1-4.27,6.61,7.45,7.45,0,0,1,5.24,7.21c0,5.63-4.31,8.93-10.2,8.93H300.26Zm11.2,12.51c4.15,0,5.79-1.67,5.79-4.48,0-2.6-1.88-4.37-5.25-4.37h-7.31v8.85Zm-6.77,14.21h7.2c3.76,0,6.22-1.74,6.22-5.33,0-3.13-2-5.23-6.85-5.23h-6.57Z" transform="translate(-300.26 -215.81)"/></svg>