<svg id="圖層_1" data-name="圖層 1" xmlns="http://www.w3.org/2000/svg" viewBox="0 0 414.42 295.77"><defs><style>.cls-1{fill:#21457a;}.cls-2{fill:#667ebe;}.cls-3{fill:#1485c9;}.cls-4{fill:none;stroke:#231815;stroke-miterlimit:10;}.cls-5{fill:#231815;}</style></defs><title>web-t-multi-level</title><circle class="cls-1" cx="207.47" cy="45.06" r="18.95"/><circle class="cls-2" cx="122.96" cy="106.46" r="18.95"/><circle class="cls-3" cx="18.96" cy="106.46" r="18.95"/><circle class="cls-3" cx="67.46" cy="18.96" r="18.95"/><circle class="cls-2" cx="259.71" cy="205.81" r="18.95"/><circle class="cls-3" cx="352.71" cy="242.31" r="18.95"/><circle class="cls-2" cx="291.99" cy="106.46" r="18.95"/><circle class="cls-2" cx="155.24" cy="205.81" r="18.95"/><circle class="cls-3" cx="83.24" cy="276.81" r="18.95"/><circle class="cls-3" cx="83.24" cy="205.81" r="18.95"/><circle class="cls-3" cx="157.24" cy="276.31" r="18.95"/><line class="cls-4" x1="232.15" y1="205.81" x2="181.67" y2="205.81"/><polygon class="cls-5" points="180.17 205.81 186.57 209.5 186.57 202.12 180.17 205.81"/><polygon class="cls-5" points="236.41 205.81 230.01 202.12 230.01 209.5 236.41 205.81"/><line class="cls-4" x1="283.61" y1="132.77" x2="267.07" y2="180.46"/><polygon class="cls-5" points="266.58 181.88 272.16 177.04 265.18 174.62 266.58 181.88"/><polygon class="cls-5" points="285.01 128.75 279.42 133.58 286.4 136 285.01 128.75"/><line class="cls-4" x1="235.74" y1="188.47" x2="145.47" y2="124.93"/><polygon class="cls-5" points="141.99 122.41 145.09 129.11 149.34 123.07 141.99 122.41"/><polygon class="cls-5" points="239.23 190.92 236.13 184.22 231.88 190.26 239.23 190.92"/><line class="cls-4" x1="251.09" y1="177.18" x2="215.91" y2="72.55"/><polygon class="cls-5" points="214.59 68.45 213.13 75.69 220.13 73.34 214.59 68.45"/><polygon class="cls-5" points="252.45 181.22 253.91 173.98 246.91 176.34 252.45 181.22"/><line class="cls-4" x1="228.74" y1="60.97" x2="269.58" y2="90.64"/><polygon class="cls-5" points="270.79 91.52 267.79 84.77 263.45 90.75 270.79 91.52"/><polygon class="cls-5" points="225.29 58.46 228.3 65.21 232.64 59.23 225.29 58.46"/><line class="cls-4" x1="144.18" y1="89.81" x2="185.59" y2="60.95"/><polygon class="cls-5" points="186.82 60.09 179.46 60.72 183.68 66.78 186.82 60.09"/><polygon class="cls-5" points="140.68 92.25 148.04 91.62 143.82 85.56 140.68 92.25"/><line class="cls-4" x1="196.59" y1="72.99" x2="163.55" y2="178.33"/><polygon class="cls-5" points="162.21 182.41 167.65 177.41 160.6 175.2 162.21 182.41"/><polygon class="cls-5" points="197.86 68.92 192.43 73.92 199.47 76.13 197.86 68.92"/><line class="cls-4" x1="179.18" y1="188.05" x2="267.83" y2="122.26"/><polygon class="cls-5" points="271.31 119.74 263.97 120.59 268.38 126.52 271.31 119.74"/><polygon class="cls-5" points="175.76 190.59 183.1 189.75 178.69 183.82 175.76 190.59"/><line class="cls-4" x1="145.76" y1="179.66" x2="131.11" y2="131.36"/><polygon class="cls-5" points="130.68 129.92 129 137.12 136.07 134.97 130.68 129.92"/><polygon class="cls-5" points="147 183.74 148.67 176.55 141.6 178.69 147 183.74"/><line class="cls-4" x1="151.74" y1="106.47" x2="262.12" y2="104.81"/><polygon class="cls-5" points="266.42 104.8 259.97 101.2 260.08 108.59 266.42 104.8"/><polygon class="cls-5" points="147.48 106.53 153.93 110.13 153.82 102.74 147.48 106.53"/><line class="cls-4" x1="94.65" y1="106.81" x2="44.17" y2="106.81"/><polygon class="cls-5" points="42.67 106.81 49.07 110.5 49.07 103.12 42.67 106.81"/><polygon class="cls-5" points="98.91 106.81 92.51 103.12 92.51 110.5 98.91 106.81"/><line class="cls-4" x1="82.86" y1="42.15" x2="108.1" y2="85.86"/><polygon class="cls-5" points="108.85 87.16 108.85 79.78 102.45 83.47 108.85 87.16"/><polygon class="cls-5" points="80.73 38.46 80.73 45.85 87.13 42.15 80.73 38.46"/><line class="cls-4" x1="54.22" y1="42.15" x2="28.98" y2="85.86"/><polygon class="cls-5" points="28.23 87.16 28.23 79.78 34.63 83.47 28.23 87.16"/><polygon class="cls-5" points="56.35 38.46 56.35 45.85 49.95 42.15 56.35 38.46"/><line class="cls-4" x1="283.58" y1="217.61" x2="330.58" y2="236.02"/><polygon class="cls-5" points="331.97 236.57 327.36 230.8 324.67 237.67 331.97 236.57"/><polygon class="cls-5" points="279.61 216.06 284.22 221.83 286.91 214.95 279.61 216.06"/><line class="cls-4" x1="135.26" y1="225.05" x2="99.35" y2="260.52"/><polygon class="cls-5" points="98.29 261.57 100.24 254.45 105.43 259.7 98.29 261.57"/><polygon class="cls-5" points="138.3 222.05 136.34 229.18 131.15 223.92 138.3 222.05"/><line class="cls-4" x1="135.04" y1="259.37" x2="99.57" y2="223.46"/><polygon class="cls-5" points="98.51 222.39 105.64 224.35 100.38 229.54 98.51 222.39"/><polygon class="cls-5" points="138.03 262.4 130.91 260.45 136.16 255.26 138.03 262.4"/><circle class="cls-3" cx="395.46" cy="106.46" r="18.95"/><circle class="cls-3" cx="340.46" cy="18.96" r="18.95"/><line class="cls-4" x1="367.65" y1="106.81" x2="317.17" y2="106.81"/><polygon class="cls-5" points="315.67 106.81 322.07 110.5 322.07 103.12 315.67 106.81"/><polygon class="cls-5" points="371.91 106.81 365.51 103.12 365.51 110.5 371.91 106.81"/><line class="cls-4" x1="155.79" y1="251.47" x2="155.79" y2="229.69"/><polygon class="cls-5" points="155.79 228.19 152.1 234.59 159.49 234.59 155.79 228.19"/><polygon class="cls-5" points="155.79 256.1 159.49 249.7 152.1 249.7 155.79 256.1"/><line class="cls-4" x1="82.79" y1="251.47" x2="82.79" y2="229.69"/><polygon class="cls-5" points="82.79 228.19 79.1 234.59 86.48 234.59 82.79 228.19"/><polygon class="cls-5" points="82.79 256.1 86.48 249.7 79.1 249.7 82.79 256.1"/><line class="cls-4" x1="110.47" y1="206.15" x2="132.24" y2="206.15"/><polygon class="cls-5" points="133.74 206.15 127.35 202.45 127.35 209.84 133.74 206.15"/><polygon class="cls-5" points="105.84 206.15 112.24 209.84 112.24 202.45 105.84 206.15"/><line class="cls-4" x1="110.47" y1="278.48" x2="132.24" y2="278.48"/><polygon class="cls-5" points="133.74 278.48 127.35 274.79 127.35 282.17 133.74 278.48"/><polygon class="cls-5" points="105.84 278.48 112.24 282.17 112.24 274.79 105.84 278.48"/><line class="cls-4" x1="355.86" y1="42.15" x2="381.1" y2="85.86"/><polygon class="cls-5" points="381.85 87.16 381.85 79.78 375.45 83.47 381.85 87.16"/><polygon class="cls-5" points="353.73 38.46 353.73 45.85 360.13 42.15 353.73 38.46"/><line class="cls-4" x1="327.22" y1="42.15" x2="301.98" y2="85.86"/><polygon class="cls-5" points="301.23 87.16 301.23 79.78 307.63 83.47 301.23 87.16"/><polygon class="cls-5" points="329.35 38.46 329.35 45.85 322.95 42.15 329.35 38.46"/></svg>