<svg id="圖層_1" data-name="圖層 1" xmlns="http://www.w3.org/2000/svg" viewBox="0 0 253 253"><defs><style>.cls-1{fill:#21457a;}.cls-2{fill:#1485c9;}.cls-3,.cls-5{fill:none;}.cls-3{stroke:#231815;stroke-miterlimit:10;}.cls-4{fill:#231815;}</style></defs><title>web-t-alllink</title><circle class="cls-1" cx="127.23" cy="47.59" r="18.95"/><circle class="cls-2" cx="42.71" cy="108.99" r="18.95"/><circle class="cls-2" cx="179.46" cy="208.34" r="18.95"/><circle class="cls-2" cx="211.74" cy="108.99" r="18.95"/><circle class="cls-2" cx="75" cy="208.34" r="18.95"/><line class="cls-3" x1="151.9" y1="208.34" x2="101.43" y2="208.34"/><polygon class="cls-4" points="99.93 208.34 106.33 212.04 106.33 204.65 99.93 208.34"/><polygon class="cls-4" points="156.16 208.34 149.77 204.65 149.77 212.04 156.16 208.34"/><line class="cls-3" x1="203.36" y1="135.31" x2="186.82" y2="182.99"/><polygon class="cls-4" points="186.33 184.41 191.92 179.58 184.94 177.16 186.33 184.41"/><polygon class="cls-4" points="204.76 131.28 199.18 136.11 206.16 138.53 204.76 131.28"/><line class="cls-3" x1="155.5" y1="191" x2="65.23" y2="127.46"/><polygon class="cls-4" points="61.74 124.94 64.85 131.64 69.1 125.6 61.74 124.94"/><polygon class="cls-4" points="158.99 193.45 155.88 186.75 151.63 192.79 158.99 193.45"/><line class="cls-3" x1="170.85" y1="179.71" x2="135.66" y2="75.08"/><polygon class="cls-4" points="134.35 70.99 132.89 78.23 139.89 75.87 134.35 70.99"/><polygon class="cls-4" points="172.21 183.75 173.67 176.51 166.67 178.87 172.21 183.75"/><line class="cls-3" x1="148.5" y1="63.5" x2="189.33" y2="93.17"/><polygon class="cls-4" points="190.55 94.05 187.54 87.3 183.2 93.28 190.55 94.05"/><polygon class="cls-4" points="145.05 60.99 148.05 67.74 152.4 61.77 145.05 60.99"/><line class="cls-3" x1="63.94" y1="92.34" x2="105.35" y2="63.48"/><polygon class="cls-4" points="106.58 62.63 99.22 63.25 103.44 69.31 106.58 62.63"/><polygon class="cls-4" points="60.44 94.78 67.8 94.15 63.57 88.09 60.44 94.78"/><line class="cls-3" x1="116.34" y1="75.52" x2="83.3" y2="180.86"/><polygon class="cls-4" points="81.96 184.94 87.4 179.94 80.35 177.73 81.96 184.94"/><polygon class="cls-4" points="117.62 71.46 112.18 76.45 119.23 78.67 117.62 71.46"/><line class="cls-3" x1="98.94" y1="190.58" x2="187.58" y2="124.79"/><polygon class="cls-4" points="191.07 122.27 183.73 123.12 188.13 129.05 191.07 122.27"/><polygon class="cls-4" points="95.52 193.13 102.85 192.28 98.45 186.35 95.52 193.13"/><line class="cls-3" x1="65.51" y1="182.19" x2="50.87" y2="133.89"/><polygon class="cls-4" points="50.43 132.46 48.75 139.65 55.82 137.5 50.43 132.46"/><polygon class="cls-4" points="66.75 186.27 68.43 179.08 61.36 181.22 66.75 186.27"/><line class="cls-3" x1="71.5" y1="109" x2="181.88" y2="107.34"/><polygon class="cls-4" points="186.18 107.33 179.73 103.74 179.84 111.12 186.18 107.33"/><polygon class="cls-4" points="67.24 109.06 73.69 112.66 73.58 105.28 67.24 109.06"/><rect class="cls-5" width="253" height="253"/></svg>